<?xml version="1.0" encoding="UTF-8"?>
<!DOCTYPE svg PUBLIC "-//W3C//DTD SVG 1.1//EN" "http://www.w3.org/Graphics/SVG/1.1/DTD/svg11.dtd">
<!-- Creator: CorelDRAW 2018 (64 Bit Versão de avaliação) -->
<svg xmlns="http://www.w3.org/2000/svg" xml:space="preserve" width="225.436mm" height="62.6803mm" version="1.1" style="shape-rendering:geometricPrecision; text-rendering:geometricPrecision; image-rendering:optimizeQuality; fill-rule:evenodd; clip-rule:evenodd"
viewBox="0 0 14730.53 4095.68"
 xmlns:xlink="http://www.w3.org/1999/xlink">
 <defs>
  <style type="text/css">
   <![CDATA[
    .fil0 {fill:#04D361}
    .fil1 {fill:#FEFEFE;fill-rule:nonzero}
   ]]>
  </style>
 </defs>
 <g id="Camada_x0020_1">
  <metadata id="CorelCorpID_0Corel-Layer"/>
  <g id="_1848183247952">
   <polygon class="fil0" points="14730.53,2997.79 12594.41,4095.68 12298.5,2997.79 "/>
   <path class="fil1" d="M1936.32 2351.24c0,89.13 -31.51,165.21 -94.51,228.21 -63.01,63.01 -139.08,94.51 -228.21,94.51l-1613.6 0 0 -1936.32 322.72 0 -322.72 0 0 -322.71 1290.88 0c89.13,0 165.2,31.5 228.21,94.5 63,63.01 94.51,139.08 94.51,228.21l0 645.44 9.22 0c89.13,0 163.66,31.51 223.6,94.51 59.93,63.01 89.9,139.07 89.9,228.21l0 645.44zm-368.83 0l0 -464.86 362.29 -180.58 -1560.96 0 0 645.44 1198.67 0zm1095.02 322.72l-322.72 0 0 -2351.24 322.72 -322.71 0 2673.96zm1947.93 0l-322.72 0 0 -235.12 -276.61 235.12 -691.54 0c-89.13,0 -165.21,-31.5 -228.21,-94.51 -63,-63 -94.5,-139.07 -94.5,-228.21l0 -322.72c0,-89.13 31.5,-165.2 94.5,-228.21 63.01,-63 139.08,-94.51 228.21,-94.51l922.05 0 -276.62 272.01 -645.43 0 0 419.54 968.15 0 0 -1060.36 -1290.87 0 276.61 -276.62 1014.26 0c89.13,0 165.21,31.51 228.21,94.51 63.01,63.01 94.51,139.08 94.51,228.21l0 1290.88zm1740.47 -1613.6l-281.23 276.62 -779.14 0 0 1060.36 968.16 0 0 276.61 -968.16 0c-89.13,0 -165.21,-31.5 -228.21,-94.51 -63.01,-63 -94.51,-139.07 -94.51,-228.21l0 -968.16c0,-89.13 31.5,-165.2 94.51,-228.21 63,-63 139.07,-94.51 228.21,-94.51l1060.36 0zm1786.57 0l-733.03 640.83 0 46.1 318.11 0c89.13,0 165.21,31.51 228.21,94.51 63.01,63.01 94.51,139.07 94.51,228.21l0 603.95 -322.72 0 0 -691.54 -968.16 0 0 691.54 -322.72 0 0 -2351.24 322.72 -322.71 0 1940.92 991.21 -880.57 391.87 0zm1832.67 1613.6l-1290.88 0c-89.13,0 -165.21,-31.5 -228.21,-94.51 -63.01,-63 -94.51,-139.07 -94.51,-228.21l0 -968.16c0,-89.13 31.5,-165.2 94.51,-228.21 63,-63 139.07,-94.51 228.21,-94.51l968.16 0c89.13,0 165.2,31.51 228.21,94.51 63,63.01 94.51,139.08 94.51,228.21l0 322.72 -322.72 322.72 -922.06 0 276.62 -276.61 645.44 0 0 -414.92 -968.16 0 0 1060.36 1290.88 0 0 276.61zm1832.67 0l-322.72 0 0 -230.51 -230.51 230.51 -737.64 0c-89.13,0 -165.21,-31.5 -228.21,-94.51 -63.01,-63 -94.51,-139.07 -94.51,-228.21l0 -968.16c0,-89.13 31.5,-165.2 94.51,-228.21 63,-63 139.07,-94.51 228.21,-94.51l968.16 0 0 -737.64 322.72 -322.71 0 2673.96zm-322.72 -276.61l0 -1290.88 -230.51 230.51 -737.64 0 0 1060.36 968.16 0zm1187.23 276.61l-368.83 0 0 -2259.03 368.83 0 0 2259.03zm2063.19 0l-322.72 0 0 -1336.98 -968.16 0 0 1336.98 -322.72 0 0 -1613.6 322.72 0 0 230.51 230.51 -230.51 737.64 0c89.13,0 165.2,31.51 228.21,94.51 63,63.01 94.51,139.08 94.51,228.21l0 1290.88zm-13485.75 -1290.88l0 -457.23 362.29 -188.21 -1238.24 0 0 922.06 0 -276.62 875.95 0z"/>
  </g>
 </g>
</svg>
