<?xml version="1.0" encoding="UTF-8"?>
<!DOCTYPE svg PUBLIC "-//W3C//DTD SVG 1.1//EN" "http://www.w3.org/Graphics/SVG/1.1/DTD/svg11.dtd">
<!-- Creator: CorelDRAW 2018 (64 Bit Versão de avaliação) -->
<svg xmlns="http://www.w3.org/2000/svg" xml:space="preserve" width="3000mm" height="2000mm" version="1.1" style="shape-rendering:geometricPrecision; text-rendering:geometricPrecision; image-rendering:optimizeQuality; fill-rule:evenodd; clip-rule:evenodd"
viewBox="0 0 300000 200000"
 xmlns:xlink="http://www.w3.org/1999/xlink">
 <defs>
  <style type="text/css">
   <![CDATA[
    .str7 {stroke:#6842C2;stroke-width:300;stroke-miterlimit:22.9256;stroke-opacity:0.239216}
    .str12 {stroke:black;stroke-width:300;stroke-miterlimit:22.9256}
    .str0 {stroke:#04D361;stroke-width:300;stroke-miterlimit:22.9256}
    .str5 {stroke:#9871F5;stroke-width:300;stroke-miterlimit:22.9256}
    .str6 {stroke:#04D361;stroke-width:26.46;stroke-miterlimit:22.9256}
    .str4 {stroke:#9871F5;stroke-width:26.46;stroke-miterlimit:22.9256}
    .str13 {stroke:#C9C9D4;stroke-width:26.46;stroke-miterlimit:22.9256}
    .str8 {stroke:#452B1F;stroke-width:20;stroke-miterlimit:22.9256}
    .str18 {stroke:#765441;stroke-width:100;stroke-linecap:round;stroke-linejoin:round;stroke-miterlimit:22.9256}
    .str15 {stroke:#561E15;stroke-width:200;stroke-linecap:round;stroke-linejoin:round;stroke-miterlimit:22.9256}
    .str9 {stroke:#86553C;stroke-width:200;stroke-linecap:round;stroke-linejoin:round;stroke-miterlimit:22.9256}
    .str2 {stroke:#04D361;stroke-width:300;stroke-linecap:round;stroke-linejoin:round;stroke-miterlimit:22.9256}
    .str1 {stroke:white;stroke-width:300;stroke-linecap:round;stroke-linejoin:round;stroke-miterlimit:22.9256}
    .str11 {stroke:#452B1F;stroke-width:500;stroke-linecap:round;stroke-linejoin:round;stroke-miterlimit:22.9256}
    .str19 {stroke:#765441;stroke-width:500;stroke-linecap:round;stroke-linejoin:round;stroke-miterlimit:22.9256}
    .str16 {stroke:#86553C;stroke-width:500;stroke-linecap:round;stroke-linejoin:round;stroke-miterlimit:22.9256}
    .str14 {stroke:#C9C9D4;stroke-width:26.46;stroke-linecap:round;stroke-linejoin:round;stroke-miterlimit:22.9256}
    .str17 {stroke:#43302D;stroke-width:150;stroke-linecap:round;stroke-linejoin:round;stroke-miterlimit:22.9256}
    .str20 {stroke:#765441;stroke-width:150;stroke-linecap:round;stroke-linejoin:round;stroke-miterlimit:22.9256}
    .str10 {stroke:#86553C;stroke-width:150;stroke-linecap:round;stroke-linejoin:round;stroke-miterlimit:22.9256}
    .str3 {stroke:#04D361;stroke-width:52.92;stroke-linecap:round;stroke-linejoin:round;stroke-miterlimit:22.9256}
    .fil0 {fill:none}
    .fil15 {fill:none}
    .fil30 {fill:#373435}
    .fil29 {fill:#5A2F2F}
    .fil24 {fill:#5A2F2F}
    .fil1 {fill:#04D361}
    .fil23 {fill:#194248}
    .fil33 {fill:#43302D}
    .fil27 {fill:#47248F}
    .fil35 {fill:#60423D}
    .fil21 {fill:#6842C2}
    .fil34 {fill:#765441}
    .fil28 {fill:#86553C}
    .fil2 {fill:#9871F5}
    .fil31 {fill:#BC8567}
    .fil20 {fill:#BC8567}
    .fil25 {fill:#C5947B}
    .fil32 {fill:#C9C9D4}
    .fil22 {fill:#D8D8E3}
    .fil4 {fill:#E6E6F0}
    .fil6 {fill:#F2F2FA}
    .fil26 {fill:#FCDDC6}
    .fil3 {fill:white}
    .fil7 {fill:#BC8567;fill-opacity:0.000000}
    .fil5 {fill:#E6E6F0;fill-opacity:0.239216}
    .fil17 {fill:#03A14A}
    .fil9 {fill:#04D361}
    .fil13 {fill:#0E1235}
    .fil14 {fill:#452B1F}
    .fil11 {fill:#86553C}
    .fil19 {fill:#B27250}
    .fil8 {fill:#B27250}
    .fil10 {fill:#F2F2FA}
    .fil18 {fill:white}
    .fil12 {fill:url(#id2)}
    .fil16 {fill:url(#id3)}
   ]]>
  </style>
   <clipPath id="id0">
    <path d="M176530.23 33039.51l0 73150.66c0,2206.6 -1477.71,3992.76 -3304.08,3992.76l-91155.31 0c-819.89,0 -1571.53,-359.24 -2149.29,-959.75 -705.08,-734 -1155.32,-1816.67 -1155.32,-3033.01l0 -73150.66c0,-2206.78 1482.47,-3992.59 3304.61,-3992.59l91155.31 0c819.89,0 1575.76,359.25 2149.28,959.57 709.14,734.01 1154.8,1816.85 1154.8,3033.02z"/>
   </clipPath>
   <clipPath id="id1">
    <path d="M176530.23 33039.51l0 73150.66c0,2206.6 -1477.71,3992.76 -3304.08,3992.76l-91155.31 0c-819.89,0 -1571.53,-359.24 -2149.29,-959.75 -705.08,-734 -1155.32,-1816.67 -1155.32,-3033.01l0 -73150.66c0,-2206.78 1482.47,-3992.59 3304.61,-3992.59l91155.31 0c819.89,0 1575.76,359.25 2149.28,959.57 709.14,734.01 1154.8,1816.85 1154.8,3033.02z"/>
   </clipPath>
  <linearGradient id="id2" gradientUnits="userSpaceOnUse" x1="106093.92" y1="42282.71" x2="106395.45" y2="47464.61">
   <stop offset="0" style="stop-opacity:1; stop-color:#452B1F"/>
   <stop offset="1" style="stop-opacity:1; stop-color:#BC8567"/>
  </linearGradient>
  <linearGradient id="id3" gradientUnits="userSpaceOnUse" xlink:href="#id2" x1="109366.33" y1="42445.36" x2="109537.51" y2="47509.6">
  </linearGradient>
 </defs>
 <g id="Camada_x0020_1">
  <metadata id="CorelCorpID_0Corel-Layer"/>
  <path class="fil0 str0" d="M152642.25 176939.87c566.11,-2969.53 2323.35,-5692.33 4790.78,-7430.35"/>
  <path class="fil0 str0" d="M152565.71 177775.11c106.52,-2479.61 1063.44,-8449 3327.01,-12185.7"/>
  <path class="fil0 str0" d="M152599.92 177468.59c391.34,-4422.72 357.3,-9309.98 -332.26,-13698.49"/>
  <g>
   <path class="fil1" d="M157793.69 168354.55l0 0c-21.87,38.79 -43.74,77.42 -65.78,116.74 -307.4,543.54 -614.97,1086.2 -993.79,1599.4 99.29,-32.98 204.4,-73.19 313.57,-117.1 55.02,-21.87 111.99,-45.15 169.83,-68.6 119.93,-48.85 243.56,-99.29 360.66,-143.21 174.06,-64.9 354.66,-123.09 523.08,-147.96l0 0c781.09,-114.63 1578.59,-83.42 2344.69,16.4l0 0c597.86,77.95 1194.12,196.46 1780.69,313.04 190.3,37.91 380.23,75.66 568.23,111.63 774.75,147.79 1536.62,270.54 2304.66,280.94l0 0c435.78,6 898.72,-50.97 1289.71,-201.22 389.76,-150.26 690.09,-385.88 842.29,-729.78l0.53 -0.53c251.49,-562.58 -7.58,-1304.52 -532.07,-1740.83l-0.36 -0.53c-519.37,-435.26 -1231.51,-608.44 -1966.4,-679.34l0 0c-267.36,-26.1 -534.72,-39.68 -808.6,-53.61 -101.23,-5.11 -202.99,-10.41 -306.16,-15.87 -377.94,-21.52 -765.22,-51.85 -1148.8,-125.04l-0.36 -0.53c-229.09,-44.27 -455.53,-103.17 -675.27,-161.9 -34.92,-9.34 -69.49,-18.69 -103.53,-28.04 -185.35,-49.91 -365.41,-98.41 -545.47,-139.5 -426.09,-97.52 -825.54,-146.91 -1216.53,-70.89l-2134.82 1986.33zm0 0l0.53 -0.89 -0.53 0.89zm0 0l0.53 -0.89 -0.53 0.89zm0.53 -0.89c523.08,-932.41 1196.94,-1803.09 2134.29,-1985.44l-2134.29 1985.44z"/>
   <path id="1" class="fil0 str0" d="M157793.69 168354.55l0 0c-21.87,38.79 -43.74,77.42 -65.78,116.74 -307.4,543.54 -614.97,1086.2 -993.79,1599.4 99.29,-32.98 204.4,-73.19 313.57,-117.1 55.02,-21.87 111.99,-45.15 169.83,-68.6 119.93,-48.85 243.56,-99.29 360.66,-143.21 174.06,-64.9 354.66,-123.09 523.08,-147.96l0 0c781.09,-114.63 1578.59,-83.42 2344.69,16.4l0 0c597.86,77.95 1194.12,196.46 1780.69,313.04 190.3,37.91 380.23,75.66 568.23,111.63 774.75,147.79 1536.62,270.54 2304.66,280.94l0 0c435.78,6 898.72,-50.97 1289.71,-201.22 389.76,-150.26 690.09,-385.88 842.29,-729.78l0.53 -0.53c251.49,-562.58 -7.58,-1304.52 -532.07,-1740.83l-0.36 -0.53c-519.37,-435.26 -1231.51,-608.44 -1966.4,-679.34l0 0c-267.36,-26.1 -534.72,-39.68 -808.6,-53.61 -101.23,-5.11 -202.99,-10.41 -306.16,-15.87 -377.94,-21.52 -765.22,-51.85 -1148.8,-125.04l-0.36 -0.53c-229.09,-44.27 -455.53,-103.17 -675.27,-161.9 -34.92,-9.34 -69.49,-18.69 -103.53,-28.04 -185.35,-49.91 -365.41,-98.41 -545.47,-139.5 -426.09,-97.52 -825.54,-146.91 -1216.53,-70.89l-2134.82 1986.33zm0 0l0.53 -0.89m-0.53 0.89l0.53 -0.89m0 0c523.08,-932.41 1196.94,-1803.09 2134.29,-1985.44l-2134.29 1985.44z"/>
  </g>
  <path class="fil1 str0" d="M155607.19 166113.02c291.7,-244.08 567.88,-546.53 853.93,-869.8 37.39,-41.97 74.25,-84.12 111.46,-126.45 343.9,-390.1 705.08,-800.31 1106.47,-1119.88 1099.78,-879.14 2431.99,-1558.13 3867.2,-1669.06l-5939.06 3785.19zm0 0c14.46,-84.12 36.33,-181.65 66.31,-292.22 102.11,-376 283.23,-855.7 490.46,-1351.26 313.91,-750.41 676.51,-1511.4 897.13,-1974.69 71.08,-148.85 127.51,-267.01 162.96,-344.43 727.48,-1579.47 1850.18,-3062.3 3437.59,-3507.07l0 0c673.69,-188.53 1375.07,-181.13 2108.19,-115.7 250.08,22.4 508.09,51.85 769.81,81.66 488.16,56.43 989.72,113.75 1477.35,127.86l0.89 0c234.73,5.64 473.7,1.76 707.02,-1.94 113.75,-1.77 226.27,-3.71 335.96,-4.23 341.43,-2.3 671.93,6.17 996.08,54.67 647.23,97.52 1263.26,387.28 1565.53,898.19l0.53 0.53c233.33,391.87 245.85,871.21 85.89,1332.57 -160.49,462.41 -488.51,885.32 -899.61,1145.63 -844.58,535.25 -1929.54,573.52 -2993.86,455.35 -308.46,-34.03 -605.27,-77.95 -906.14,-122.74 -228.73,-33.51 -460.12,-67.55 -700.85,-98.41 -542.65,-68.96 -1098.01,-113.75 -1661.65,-69.48l-5939.59 3785.71zm-10.23 273.89c0,0 0,-0.53 0,-1.06l0 1.06z"/>
  <path class="fil1 str0" d="M153331.1 159516.85l0 0.53c136.68,836.65 -2.47,1696.04 -264.71,2524.75 -18.52,59.26 -40.92,134.04 -67.19,219.39 -78.31,261.19 -188.35,625.2 -323.8,969.62 -89.59,227.68 -185.18,432.97 -282.7,583.22 -48.5,75.13 -93.3,129.27 -132.09,164.72 -39.69,35.98 -62.08,42.5 -66.32,43.39l-0.35 0c-48.5,9.34 -147.08,-4.59 -304.22,-83.07 -148.84,-74.07 -315.5,-188.53 -484.46,-321.85 -336.84,-266.13 -653.23,-585.69 -806.66,-745.65 -468.94,-494.16 -842.29,-1076.14 -1072.79,-1712.09l-0.53 -0.88c-269.65,-734.54 -362.95,-1519.33 -456.24,-2337.29 -1.94,-17.81 -3.88,-35.97 -6.17,-53.79 -89.95,-791.85 -183.42,-1613.86 -455.36,-2394.6l0 0c-309.34,-884.26 -836.12,-1674.7 -1341.03,-2431.98 -132.63,-198.76 -263.66,-395.22 -388.7,-590.81 -613.73,-957.45 -1132.93,-1981.74 -1124.99,-3055.41 7.93,-1075.97 691.5,-2158.46 1671.35,-2332.53l0.53 0c646.18,-116.22 1333.45,155.38 1902.38,586.93l0.35 0c804.02,607.2 1391.12,1494.64 1642.08,2474.49 150.79,593.09 180.06,1210.52 208.99,1855.82l1.06 26.1c28.39,628.55 57.31,1284.07 214.98,1921.43 195.58,799.44 583.39,1532.91 955.16,2235.7 28.04,53.62 56.61,106.7 84.47,159.96 401.75,762.4 767.69,1494.99 896.96,2293.9z"/>
  <path class="fil0 str0" d="M152556.89 177050.8c-289.23,-3906.88 -1293.42,-8321.14 -3475.86,-11571.96"/>
  <path class="fil1 str0" d="M148554.78 162539.99l0 1.06c312.68,871.57 505.26,1784.75 666.28,2704.99l0.53 0.89c8.29,48.49 23.28,110.57 37.74,172.12 5.64,23.81 10.76,47.09 15.87,69.49 20.46,88.71 38.8,178.83 49.03,264.71 9.7,87.65 9.35,157.14 -0.88,207.58 -9.35,48.14 -23.81,60.14 -28.04,62.96l0 0c-1.94,1.94 -19.23,14.11 -78.83,5.11 -60.32,-8.82 -137.74,-36.33 -226.8,-82.53 -176.89,-90.48 -350.07,-226.27 -437.72,-304.22 -156.79,-143.74 -295.76,-310.4 -435.43,-490.99 -48.86,-63.84 -100.18,-131.91 -152.03,-201.57 -90.12,-119.4 -182.88,-243.91 -276.7,-359.25l0 -0.35c-1265.55,-1555.84 -3264.05,-2303.78 -5194.3,-2580.48 -965.92,-138.62 -1937.48,-174.95 -2901.46,-190.29 -254.84,-3.88 -508.62,-6.53 -761.51,-9.35 -708.79,-7.59 -1411.58,-14.46 -2114.37,-53.79l-1.23 0c-437.37,-21.34 -831.18,-68.96 -1122.71,-276.18 -380.75,-272.47 -539.48,-830.12 -422.73,-1338.74 116.05,-502.97 462.77,-948.1 890.26,-1315.28l0 0c943.87,-811.61 2197.79,-1220.76 3462.81,-1303.3 1265.37,-83.06 2543.45,144.62 3791.71,482.52l0 0c1202.77,325.21 2375.38,761.87 3297.56,1537.85 911.25,770.34 1534.68,1845.95 1942.95,2997.04z"/>
  <path class="fil0 str0" d="M152476.12 177468.59c-169.84,-3408.66 -1701.69,-6732.49 -4177.95,-9075.77"/>
  <g>
   <path class="fil1" d="M147000.88 166604.71c-856.22,-455.36 -1825.84,-752.17 -2782.41,-1020.41l2782.41 1020.41zm0 0c64.9,34.57 123.27,65.78 181.65,100.88l-0.53 0 5.64 3.17c372.3,210.58 620.61,576.7 893.97,993.96 31.21,47.97 79.71,145.5 145.14,286.41 20.1,42.5 41.09,88.71 62.96,136.33 46.21,100.87 96.12,210.04 146.91,315.5 15.52,32.1 31.39,64.72 47.26,97 -1151.62,-315.51 -2418.94,-303.87 -3527.71,-293.11l-13.05 0c0,0 0,0 0,0l2057.76 -1640.14zm0 0l-2057.76 1640.14 2057.76 -1640.14zm-2057.76 1640.14c-1516.51,13.05 -3033.37,295.05 -4451.47,842.29l-0.88 0.53c-188.18,73.19 -371.41,149.2 -552.53,224.33 -689.74,286.58 -1340.16,556.23 -2042.95,595.03 -232.79,11.11 -480.93,-22.4 -681.09,-106.87 -197.88,-83.95 -329.44,-208.63 -381.29,-372.82 -82.18,-268.77 59.78,-586.57 299.99,-907.19l0 0 7810.22 -275.3zm0 0l-7810.22 275.3 7810.22 -275.3zm-7810.22 275.3l0.52 -0.89 -0.52 0.89zm0 0l0.52 -0.89 -0.52 0.89zm0.52 -0.89c474.94,-639.65 1088.14,-1164.14 1721.27,-1703.97l-1721.27 1703.97zm0 0l1721.27 -1703.97 -1721.27 1703.97zm1721.27 -1703.97c825.53,-701.91 1643.49,-1376.66 2624.75,-1567.48l-2624.75 1567.48zm9941.7 1817.9c-100.17,-181.65 -202.46,-404.21 -293.46,-602.44 -90.47,-196.46 -169.84,-369.65 -226.27,-455.89 -267.89,-408.8 -544.6,-826.41 -974.38,-1069.44 -63.85,-38.27 -127.33,-72.3 -191.18,-106.52l1685.29 2234.29zm-7316.95 -3385.38c881.44,-171.25 1802.03,73.72 2739.03,336.49l-2739.03 -336.49z"/>
   <path id="1" class="fil0 str0" d="M147000.88 166604.71c-856.22,-455.36 -1825.84,-752.17 -2782.41,-1020.41l2782.41 1020.41zm0 0c64.9,34.57 123.27,65.78 181.65,100.88l-0.53 0 5.64 3.17c372.3,210.58 620.61,576.7 893.97,993.96 31.21,47.97 79.71,145.5 145.14,286.41 20.1,42.5 41.09,88.71 62.96,136.33 46.21,100.87 96.12,210.04 146.91,315.5 15.52,32.1 31.39,64.72 47.26,97 -1151.62,-315.51 -2418.94,-303.87 -3527.71,-293.11l-13.05 0c0,0 0,0 0,0m2057.76 -1640.14l-2057.76 1640.14m0 0c-1516.51,13.05 -3033.37,295.05 -4451.47,842.29l-0.88 0.53c-188.18,73.19 -371.41,149.2 -552.53,224.33 -689.74,286.58 -1340.16,556.23 -2042.95,595.03 -232.79,11.11 -480.93,-22.4 -681.09,-106.87 -197.88,-83.95 -329.44,-208.63 -381.29,-372.82 -82.18,-268.77 59.78,-586.57 299.99,-907.19l0 0m7810.22 -275.3l-7810.22 275.3m0 0l0.52 -0.89m-0.52 0.89l0.52 -0.89m0 0c474.94,-639.65 1088.14,-1164.14 1721.27,-1703.97m-1721.27 1703.97l1721.27 -1703.97m0 0c825.53,-701.91 1643.49,-1376.66 2624.75,-1567.48l-2624.75 1567.48zm9941.7 1817.9c-100.17,-181.65 -202.46,-404.21 -293.46,-602.44 -90.47,-196.46 -169.84,-369.65 -226.27,-455.89 -267.89,-408.8 -544.6,-826.41 -974.38,-1069.44 -63.85,-38.27 -127.33,-72.3 -191.18,-106.52l1685.29 2234.29zm-7316.95 -3385.38c881.44,-171.25 1802.03,73.72 2739.03,336.49l-2739.03 -336.49z"/>
  </g>
  <g>
   <path class="fil1" d="M256151.31 163623.01l0 0.53c-499.8,495.04 -1116.17,781.1 -1725.49,1020.06 -148.85,58.73 -296.81,114.28 -442.84,168.95 -463.47,173.89 -908.95,341.43 -1322.87,577.58 -1168.37,668.22 -2012.07,1872.93 -2519.28,3167.4 -6,15.35 -12.17,30.87 -18.17,46.21 -189.94,488.16 -463.82,1189.36 -615.49,1876.81 -77.95,354.48 -121.33,695.21 -107.4,993.78 14.11,299.64 84.47,537.55 215.16,707.91l0.88 0.88c295.93,389.58 817.07,470.88 1463.42,364.53 635.95,-105.46 1304.18,-379.87 1787.58,-583.39l0.53 0c176.71,-74.07 355.89,-152.02 537.54,-231.38 936.82,-407.92 1931.3,-840.88 2967.06,-885.68 1121.29,-49.38 2170.27,355.19 3131.07,741.06l26.11 10.23c965.91,387.81 1906.61,765.22 2904.63,769.45 1000.48,4.24 2068.51,-472.64 2522.99,-1356.02 190.99,-373.7 268.41,-793.26 352.36,-1247.74 15.34,-82.53 30.86,-166.13 47.09,-250.96 103.17,-532.95 243.2,-1102.24 652,-1554.78l0.35 0c419.03,-463.82 969.62,-650.58 1526.39,-728.36 400.33,-56.08 828.71,-57.84 1227.1,-59.78 145.67,-0.53 286.94,-1.42 421.85,-4.59l0.53 0c1119.35,-24.87 2270.09,-326.79 3135.66,-1053.21l0.35 -0.53c869.81,-725.54 1378.95,-1928.49 1103.66,-2928.97l-0.53 0c-227.68,-828.18 -919.71,-1418.98 -1653.19,-2010.67l0 -0.35c-1011.24,-817.95 -2069.39,-1598.69 -3287.86,-1516.51 -433.84,31.21 -861.69,170.71 -1322.34,320.97l-34.03 11.29c-462.95,151.14 -960.28,310.21 -1476.83,328.91 -651.83,22.92 -1241.22,-176.36 -1782.99,-452.54 -410.56,-210.04 -808.61,-472.29 -1187.07,-722.01 -114.81,-75.48 -227.68,-150.26 -338.79,-222.04 -974.73,-628.01 -2115.6,-1085.31 -3099.15,-612.14l-3089.99 5315.1zm0 0c703.15,-700.32 1019.01,-1672.23 1306.12,-2556.49l-1306.12 2556.49zm0 0l1306.12 -2556.49 -1306.12 2556.49zm1306.12 -2556.49c40.56,-124.69 80.24,-247.79 120.8,-367.71l-120.8 367.71zm0 0l120.8 -367.71 -120.8 367.71zm120.8 -367.71c335.97,-1000.84 813.37,-1980.87 1662.54,-2390.9l-1662.54 2390.9z"/>
   <path id="1" class="fil0 str0" d="M256151.31 163623.01l0 0.53c-499.8,495.04 -1116.17,781.1 -1725.49,1020.06 -148.85,58.73 -296.81,114.28 -442.84,168.95 -463.47,173.89 -908.95,341.43 -1322.87,577.58 -1168.37,668.22 -2012.07,1872.93 -2519.28,3167.4 -6,15.35 -12.17,30.87 -18.17,46.21 -189.94,488.16 -463.82,1189.36 -615.49,1876.81 -77.95,354.48 -121.33,695.21 -107.4,993.78 14.11,299.64 84.47,537.55 215.16,707.91l0.88 0.88c295.93,389.58 817.07,470.88 1463.42,364.53 635.95,-105.46 1304.18,-379.87 1787.58,-583.39l0.53 0c176.71,-74.07 355.89,-152.02 537.54,-231.38 936.82,-407.92 1931.3,-840.88 2967.06,-885.68 1121.29,-49.38 2170.27,355.19 3131.07,741.06l26.11 10.23c965.91,387.81 1906.61,765.22 2904.63,769.45 1000.48,4.24 2068.51,-472.64 2522.99,-1356.02 190.99,-373.7 268.41,-793.26 352.36,-1247.74 15.34,-82.53 30.86,-166.13 47.09,-250.96 103.17,-532.95 243.2,-1102.24 652,-1554.78l0.35 0c419.03,-463.82 969.62,-650.58 1526.39,-728.36 400.33,-56.08 828.71,-57.84 1227.1,-59.78 145.67,-0.53 286.94,-1.42 421.85,-4.59l0.53 0c1119.35,-24.87 2270.09,-326.79 3135.66,-1053.21l0.35 -0.53c869.81,-725.54 1378.95,-1928.49 1103.66,-2928.97l-0.53 0c-227.68,-828.18 -919.71,-1418.98 -1653.19,-2010.67l0 -0.35c-1011.24,-817.95 -2069.39,-1598.69 -3287.86,-1516.51 -433.84,31.21 -861.69,170.71 -1322.34,320.97l-34.03 11.29c-462.95,151.14 -960.28,310.21 -1476.83,328.91 -651.83,22.92 -1241.22,-176.36 -1782.99,-452.54 -410.56,-210.04 -808.61,-472.29 -1187.07,-722.01 -114.81,-75.48 -227.68,-150.26 -338.79,-222.04 -974.73,-628.01 -2115.6,-1085.31 -3099.15,-612.14l-3089.99 5315.1zm0 0c703.15,-700.32 1019.01,-1672.23 1306.12,-2556.49m-1306.12 2556.49l1306.12 -2556.49m0 0c40.56,-124.69 80.24,-247.79 120.8,-367.71m-120.8 367.71l120.8 -367.71m0 0c335.97,-1000.84 813.37,-1980.87 1662.54,-2390.9l-1662.54 2390.9z"/>
  </g>
  <path class="fil0 str1" d="M249634.15 172209.22c5663.23,-4869.97 12271.05,-8095.22 19402.3,-9467.12"/>
  <path class="fil1" d="M255233.54 164719.08c131.92,-1606.45 -169.83,-3280.62 357.31,-4801.89 940.34,-2710.11 4199.63,-4124.33 5016.7,-6872.71 978.44,-3285.04 -2008.37,-6638.15 -1489,-10025.29 216.92,-1427.45 1038.23,-2684.54 1548.61,-4034.92 510.56,-1350.73 642.65,-3042.19 -349.01,-4094.52 -1038.23,-1099.25 -2922.8,-971.39 -4156.96,-93.83 -1233.81,877.74 -1944.53,2300.96 -2522.99,3702.66 -574.58,1401.7 -1080.73,2867.42 -2055.11,4030.68 -1774.52,2117.54 -4965.74,3046.42 -5935.71,5632.55 -986.9,2633.04 880.91,5419.68 1212.64,8210.56 251.14,2113.31 -391.51,4218.15 -965.91,6271.68 -570.17,2053.69 -1076.5,4226.61 -552.89,6288.6 697.5,2748.38 3169.7,4499.62 5539.61,2735.33 2344.34,-1733.96 4110.4,-3928.4 4352.71,-6948.9z"/>
  <path class="fil0 str1" d="M249378.78 172341.31c-940.17,-9808.19 1212.82,-20447.04 6242.05,-28917.56"/>
  <path class="fil1" d="M243115.93 168642.89c-1034,-1461.48 -1625.68,-3289.09 -3029.67,-4401.03 -1608.57,-1278.6 -3837.92,-1291.13 -5880.34,-1457.26 -2046.64,-166.13 -4352.71,-745.64 -5301.34,-2569.19 -519.2,-1001.37 -519.2,-2189.85 -880.92,-3255.06 -399.8,-1171.73 -1216.87,-2143.29 -1791.27,-3238.48 -570.17,-1094.65 -872.1,-2487.89 -208.64,-3531.76 672.46,-1056.92 2144.53,-1368.01 3348.88,-1026.94 1203.83,340.55 2191.26,1188.84 3093.16,2057.76 902.08,869.27 1782.99,1798.33 2893.52,2369.03 1842.25,941.58 4029.27,766.98 6096.9,677.39 2067.99,-85.35 4323.09,0 5923.19,1321.11 1314.4,1086.19 1914.55,2794.93 2450.68,4418.32 774.04,2321.94 1565.54,4635.41 2318.59,6966.17 463.83,1431.5 1348.97,3625.59 -140.03,4750.58 -2625.63,1981.21 -7378.14,-945.81 -8892.71,-3080.64z"/>
  <path class="fil0 str1" d="M251178.52 171808.89c-3284.5,-7635.28 -10237.1,-14137.11 -18559.65,-17004.35"/>
  <path class="fil1" d="M61934.89 171458.11c940.35,-1401.88 1484.77,-3199.68 2748.38,-4226.62 1451.25,-1171.73 3446.4,-1018.29 5284.41,-1039.63 1834.31,-16.93 3906.18,-430.32 4774.04,-2202.9 476.87,-971.03 481.1,-2172.57 817.07,-3225.25 365.77,-1154.45 1106.3,-2075.04 1629.91,-3139.9 518.84,-1065.38 799.78,-2450.15 216.92,-3553.8 -595.92,-1116.18 -1910.85,-1537.85 -2991.58,-1282.31 -1080.55,255.72 -1974.16,1039.64 -2786.47,1849.3 -813.01,809.49 -1608.57,1682.99 -2612.75,2177.15 -1659.19,818.13 -3616.59,476.88 -5471.89,234.38 -1854.77,-238.44 -3876.19,-315.5 -5318.45,899.08 -1187.07,1000.84 -1735.9,2684 -2233.76,4281.64 -710.55,2288.26 -1438.21,4567.69 -2131.65,6864.42 -425.56,1414.39 -1238.22,3561.74 89.23,4809.83 2327.41,2207.13 6612.05,-400.33 7986.59,-2445.39z"/>
  <path class="fil0 str1" d="M54684.43 174065.4c3003.92,-7472.86 9284.05,-13527.61 16764.32,-15815.34"/>
  <path class="fil1" d="M50565.74 167534.3c-102.11,-1478.77 136.15,-3016.79 -285.17,-4418.49 -753.05,-2492.66 -3365.46,-3792.07 -4020.81,-6318.94 -782.85,-3020.85 1608.4,-6105.55 1195.54,-9223.92 -174.42,-1312.64 -833.83,-2467.09 -1242.27,-3711.48 -408.63,-1244.03 -514.97,-2799.34 280.76,-3766.14 834,-1014.41 2340.28,-895.02 3331.6,-85.36 987.08,809.49 1557.24,2117.54 2021.07,3404.44 459.41,1286.53 868.04,2637.27 1646.66,3706.71 1421.1,1947.35 3978.13,2799.34 4752.7,5180.89 791.49,2424.58 -706.32,4984.96 -969.98,7554.15 -200.16,1947.18 314.45,3881.66 774.04,5769.23 459.59,1887.39 863.63,3885.36 442.84,5785.98 -557.65,2526.7 -2540.27,4137.03 -4438.07,2517.88 -1876.46,-1597.64 -3293.15,-3617.3 -3488.91,-6394.95z"/>
  <path class="fil0 str1" d="M55254.59 174542.8c753.06,-9019.7 -974.38,-18806.55 -4999.59,-26599.5"/>
  <g>
   <path class="fil1" d="M26398.05 160320.87c-344.78,1478.24 370,3263.52 1497.64,4371.23 1127.64,1111.94 2591.24,1627.62 3982.54,1751.24l3642.16 1201.54 183.94 -143.74c-0.17,0 -0.17,0 -0.17,0 -495.04,-633.65 -1144.75,-925.7 -1817.21,-1074.55 -484.63,-107.4 -1002.24,-143.73 -1484.94,-177.42 -173.01,-12.17 -341.6,-23.81 -502.62,-38.27l-0.53 0c-1350.91,-119.92 -2759.13,-619.72 -3839.33,-1684.93l-0.35 -0.53c-1086.2,-1067.15 -1755.3,-2773.06 -1433.98,-4151.84l-227.15 -52.73zm0 0l227.15 53.08c0,0 0,0 0,-0.35l-227.15 -52.73zm0 0l227.15 52.73c0,0 0,0 0,0l-227.15 -52.73zm0 0c285,-1214.58 1182.84,-2015.43 2038.01,-2744.14 1187.07,-1014.07 2527.39,-2075.04 4122.91,-1849.3 561.88,78.83 1112.83,314.09 1662.89,549.18 582.87,248.84 1164.85,497.51 1758.12,558.53l-9581.93 3485.73zm227.15 52.73c265.25,-1129.75 1101.36,-1885.63 1962.17,-2619.1l0.18 -0.53c1201.53,-1026.06 2462.85,-2004.14 3938.8,-1795.51l0.35 0.53c530.66,74.07 1056.39,298.57 1617.21,537.89l35.62 15.52c560.83,239.32 1158.86,491.34 1776.29,555.18l-9330.62 3306.02zm9330.62 -3306.02l24.16 -232.44 -24.16 232.44zm0 0c780.39,80.77 1483.18,-141.79 2128.3,-472.64 488.69,-250.61 960.45,-572.64 1410.52,-880.03 137.2,-93.3 272.47,-185.71 405.62,-274.42l0.53 -0.53c1157.27,-774.04 2529.69,-1310.7 3750.63,-585.51l-7695.6 2213.13zm0 0c0,0 0,0 0.18,0l23.98 -232.44 -24.16 232.44zm24.16 -232.44c1267.32,131.74 2339.75,-600.5 3374.45,-1307 139.33,-95.06 278.12,-189.76 416.56,-281.82 1165.91,-779.68 2650.85,-1393.23 3999.64,-592.56l-7790.65 2181.38zm7671.44 -1980.69c-0.18,0 -0.36,0 -0.36,0l119.57 -200.69 -119.21 200.69zm0 0c527.13,314.98 947.75,819.89 1291.47,1428.33 343.37,607.91 602.44,1305.59 813.02,1989.15l0.17 0.53c52.91,169.84 105.11,342.84 157.84,517.44 367.36,1217.76 760.99,2522.46 1607.69,3498.61l-3870.19 -7434.06zm0 0c0,0 0,0 0,0l119.21 -200.69 -119.21 200.69zm119.21 -200.69c1148.81,686.03 1782.82,2168.86 2208.19,3549.57l1542.79 4085.18 -3750.98 -7634.75zm3750.98 7634.75c601.03,696.26 1339.09,1124.99 2079.8,1495.17 180.94,90.47 361.01,176.71 539.48,262.59 561.88,269.66 1107.36,531.9 1614.92,884.27l0.35 0.53c1447.03,1001.36 2504.83,2715.22 3151.01,4521.84 8.46,23.81 17.1,48.14 25.92,72.83 239.14,671.05 585.16,1641.55 785.15,2587.89 103.52,490.46 165.78,964.51 156.08,1380.19 -9.7,418.67 -92.06,754.11 -254.31,988.84l-0.53 0.88c-354.48,517.09 -986.38,585.16 -1772.05,390.64 -774.75,-191.88 -1592.88,-616.37 -2180.86,-929.06l-0.17 -0.53c-210.93,-111.99 -424.85,-228.56 -640.72,-346.72 -466.64,-255.19 -942.46,-515.5 -1418.1,-740.53 -700.32,-331.73 -1425.68,-599.97 -2176.97,-685.33l-0.18 0c-1345.44,-152.2 -2600.58,310.74 -3749.21,760.46l-34.04 13.05c-1151.27,451.3 -2274.67,891.32 -3482.73,814.78 -1209.82,-76.54 -2542.39,-802.96 -3134.6,-2080.68l10491.76 -9391.11zm0 0l176.18 -153.08 -176.53 152.72c0.17,0.36 0.17,0.36 0.35,0.36zm4035.44 11862.42c-216.74,-114.81 -433.66,-233.85 -651.11,-352.36 -1144.04,-626.25 -2300.25,-1258.5 -3501.61,-1394.65 -1280.72,-144.79 -2484.89,293.99 -3637.93,745.65l-55.55 21.86c-1135.58,444.78 -2300.96,901.55 -3561.22,821.66 -1280.71,-80.6 -2697.4,-847.76 -3331.41,-2215.42l14738.83 2373.26zm0 0c1170.14,622.02 3369.87,1755.3 4254.84,464.18l-4254.84 -464.18z"/>
   <path id="1" class="fil0 str0" d="M26398.05 160320.87c-344.78,1478.24 370,3263.52 1497.64,4371.23 1127.64,1111.94 2591.24,1627.62 3982.54,1751.24l3642.16 1201.54 183.94 -143.74c-0.17,0 -0.17,0 -0.17,0 -495.04,-633.65 -1144.75,-925.7 -1817.21,-1074.55 -484.63,-107.4 -1002.24,-143.73 -1484.94,-177.42 -173.01,-12.17 -341.6,-23.81 -502.62,-38.27l-0.53 0c-1350.91,-119.92 -2759.13,-619.72 -3839.33,-1684.93l-0.35 -0.53c-1086.2,-1067.15 -1755.3,-2773.06 -1433.98,-4151.84m-227.15 -52.73l227.15 53.08c0,0 0,0 0,-0.35m-227.15 -52.73l227.15 52.73c0,0 0,0 0,0m-227.15 -52.73c285,-1214.58 1182.84,-2015.43 2038.01,-2744.14 1187.07,-1014.07 2527.39,-2075.04 4122.91,-1849.3 561.88,78.83 1112.83,314.09 1662.89,549.18 582.87,248.84 1164.85,497.51 1758.12,558.53m-9354.78 3538.46c265.25,-1129.75 1101.36,-1885.63 1962.17,-2619.1l0.18 -0.53c1201.53,-1026.06 2462.85,-2004.14 3938.8,-1795.51l0.35 0.53c530.66,74.07 1056.39,298.57 1617.21,537.89l35.62 15.52c560.83,239.32 1158.86,491.34 1776.29,555.18m0 0l24.16 -232.44m-24.16 232.44c780.39,80.77 1483.18,-141.79 2128.3,-472.64 488.69,-250.61 960.45,-572.64 1410.52,-880.03 137.2,-93.3 272.47,-185.71 405.62,-274.42l0.53 -0.53c1157.27,-774.04 2529.69,-1310.7 3750.63,-585.51m-7695.6 2213.13c0,0 0,0 0.18,0l23.98 -232.44m0 0c1267.32,131.74 2339.75,-600.5 3374.45,-1307 139.33,-95.06 278.12,-189.76 416.56,-281.82 1165.91,-779.68 2650.85,-1393.23 3999.64,-592.56m-119.21 200.69c-0.18,0 -0.36,0 -0.36,0l119.57 -200.69m-119.21 200.69c527.13,314.98 947.75,819.89 1291.47,1428.33 343.37,607.91 602.44,1305.59 813.02,1989.15l0.17 0.53c52.91,169.84 105.11,342.84 157.84,517.44 367.36,1217.76 760.99,2522.46 1607.69,3498.61m-3870.19 -7434.06c0,0 0,0 0,0l119.21 -200.69m0 0c1148.81,686.03 1782.82,2168.86 2208.19,3549.57l1542.79 4085.18m0 0c601.03,696.26 1339.09,1124.99 2079.8,1495.17 180.94,90.47 361.01,176.71 539.48,262.59 561.88,269.66 1107.36,531.9 1614.92,884.27l0.35 0.53c1447.03,1001.36 2504.83,2715.22 3151.01,4521.84 8.46,23.81 17.1,48.14 25.92,72.83 239.14,671.05 585.16,1641.55 785.15,2587.89 103.52,490.46 165.78,964.51 156.08,1380.19 -9.7,418.67 -92.06,754.11 -254.31,988.84l-0.53 0.88c-354.48,517.09 -986.38,585.16 -1772.05,390.64 -774.75,-191.88 -1592.88,-616.37 -2180.86,-929.06l-0.17 -0.53c-210.93,-111.99 -424.85,-228.56 -640.72,-346.72 -466.64,-255.19 -942.46,-515.5 -1418.1,-740.53 -700.32,-331.73 -1425.68,-599.97 -2176.97,-685.33l-0.18 0c-1345.44,-152.2 -2600.58,310.74 -3749.21,760.46l-34.04 13.05c-1151.27,451.3 -2274.67,891.32 -3482.73,814.78 -1209.82,-76.54 -2542.39,-802.96 -3134.6,-2080.68l10491.76 -9391.11zm0 0l176.18 -153.08 -176.53 152.72c0.17,0.36 0.17,0.36 0.35,0.36zm4035.44 11862.42c-216.74,-114.81 -433.66,-233.85 -651.11,-352.36 -1144.04,-626.25 -2300.25,-1258.5 -3501.61,-1394.65 -1280.72,-144.79 -2484.89,293.99 -3637.93,745.65l-55.55 21.86c-1135.58,444.78 -2300.96,901.55 -3561.22,821.66 -1280.71,-80.6 -2697.4,-847.76 -3331.41,-2215.42l14738.83 2373.26zm0 0c1170.14,622.02 3369.87,1755.3 4254.84,464.18l-4254.84 -464.18z"/>
  </g>
  <path class="fil0 str1" d="M55560.93 174440.69c-6939.72,-7013.26 -14985.74,-11878.65 -23614.63,-14281.72"/>
  <path class="fil0 str2" d="M254408.54 47400.94c0,1350.73 -1093.25,2445.75 -2442.4,2445.75 -1348.44,0 -2442.22,-1095.02 -2442.22,-2445.75 0,-1350.56 1093.78,-2445.57 2442.22,-2445.57 1344.91,0 2442.4,1095.01 2442.4,2445.57z"/>
  <line class="fil0 str2" x1="253731.85" y1="49088.17" x2="255455.05" y2= "50817.72" />
  <line class="fil0 str2" x1="158855.37" y1="14459.4" x2="161424.92" y2= "17032.48" />
  <line class="fil0 str2" x1="161424.92" y1="14459.4" x2="158855.37" y2= "17032.48" />
  <line class="fil0 str2" x1="195683.86" y1="162590.96" x2="198253.05" y2= "165164.39" />
  <line class="fil0 str2" x1="198253.05" y1="162590.96" x2="195683.86" y2= "165164.39" />
  <line class="fil0 str2" x1="32620.35" y1="128493.92" x2="32620.35" y2= "132132.55" />
  <line class="fil0 str2" x1="34441.78" y1="130312.71" x2="30803.85" y2= "130312.71" />
  <path class="fil0 str3" d="M24717.7 100557.09c0,1218.28 -987.08,2211.36 -2208.18,2211.36 -1216.88,0 -2208.37,-988.84 -2208.37,-2211.36 0,-1218.82 987.26,-2211.19 2208.37,-2211.19 1221.1,4.06 2208.18,992.37 2208.18,2211.19z"/>
  <path class="fil0 str2" d="M116374.05 154040.2c0,1218.82 -987.26,2211.19 -2208.37,2211.19 -1216.52,0 -2208.01,-988.14 -2208.01,-2211.19 0,-1218.28 986.73,-2211.36 2208.01,-2211.36 1221.11,4.23 2208.37,993.08 2208.37,2211.36z"/>
  <path class="fil0 str2" d="M262103.95 114215.37c0,1218.82 -986.9,2211.37 -2208.01,2211.37 -1217.05,0 -2208.54,-988.32 -2208.54,-2211.37 0,-1218.28 987.43,-2211.18 2208.54,-2211.18 1221.11,4.23 2208.01,992.9 2208.01,2211.18z"/>
  <path class="fil2 str4" d="M11339.3 61804.17c0,314.09 -253.96,567.35 -566.47,567.35 -312.5,0 -566.46,-253.26 -566.46,-567.35 0,-313.57 253.96,-567.35 566.46,-567.35 312.51,0 566.47,253.78 566.47,567.35z"/>
  <path class="fil2 str4" d="M16925.99 61804.17c0,314.09 -253.95,567.35 -566.46,567.35 -312.68,0 -566.46,-253.26 -566.46,-567.35 0,-313.57 253.95,-567.35 566.46,-567.35 312.51,0 566.46,253.78 566.46,567.35z"/>
  <path class="fil2 str4" d="M22508.46 61804.17c0,314.09 -253.96,567.35 -566.47,567.35 -312.68,0 -566.46,-253.26 -566.46,-567.35 0,-313.57 253.78,-567.35 566.46,-567.35 312.51,0 566.47,253.78 566.47,567.35z"/>
  <path class="fil2 str4" d="M28094.98 61804.17c0,314.09 -253.78,567.35 -566.47,567.35 -312.51,0 -566.46,-253.26 -566.46,-567.35 0,-313.57 253.95,-567.35 566.46,-567.35 312.69,0 566.47,253.78 566.47,567.35z"/>
  <path class="fil2 str4" d="M33677.44 61804.17c0,314.09 -253.96,567.35 -566.46,567.35 -312.51,0 -566.47,-253.26 -566.47,-567.35 0,-313.57 253.96,-567.35 566.47,-567.35 312.5,0 566.46,253.78 566.46,567.35z"/>
  <path class="fil2 str4" d="M39263.96 61804.17c0,314.09 -253.96,567.35 -566.46,567.35 -312.51,0 -566.47,-253.26 -566.47,-567.35 0,-313.57 253.96,-567.35 566.47,-567.35 312.5,0 566.46,253.78 566.46,567.35z"/>
  <path class="fil2 str4" d="M11339.3 67394.22c0,314.09 -253.96,567.34 -566.47,567.34 -312.5,0 -566.46,-253.25 -566.46,-567.34 0,-313.57 253.96,-567.35 566.46,-567.35 312.51,0 566.47,253.78 566.47,567.35z"/>
  <path class="fil2 str4" d="M16925.99 67394.22c0,314.09 -253.95,567.34 -566.46,567.34 -312.68,0 -566.46,-253.25 -566.46,-567.34 0,-313.57 253.78,-567.35 566.46,-567.35 312.51,0 566.46,253.78 566.46,567.35z"/>
  <path class="fil2 str4" d="M22508.46 67394.22c0,314.09 -253.96,567.34 -566.47,567.34 -312.68,0 -566.46,-253.25 -566.46,-567.34 0,-313.57 253.78,-567.35 566.46,-567.35 312.51,0 566.47,253.78 566.47,567.35z"/>
  <path class="fil2 str4" d="M28094.98 67394.22c0,314.09 -253.78,567.34 -566.47,567.34 -312.51,0 -566.46,-253.25 -566.46,-567.34 0,-313.57 253.95,-567.35 566.46,-567.35 312.69,0 566.47,253.78 566.47,567.35z"/>
  <path class="fil2 str4" d="M33677.44 67394.22c0,314.09 -253.96,567.34 -566.46,567.34 -312.51,0 -566.47,-253.25 -566.47,-567.34 0,-313.57 253.96,-567.35 566.47,-567.35 312.5,0 566.46,253.78 566.46,567.35z"/>
  <path class="fil2 str4" d="M39263.96 67394.22c0,314.09 -253.96,567.34 -566.46,567.34 -312.51,0 -566.47,-253.25 -566.47,-567.34 0,-313.57 253.96,-567.35 566.47,-567.35 312.5,0 566.46,253.78 566.46,567.35z"/>
  <path class="fil2 str4" d="M11339.3 72988.49c0,314.1 -253.96,567.88 -566.47,567.88 -312.5,0 -566.46,-253.78 -566.46,-567.88 0,-313.56 253.96,-567.34 566.46,-567.34 312.51,0 566.47,253.78 566.47,567.34z"/>
  <path class="fil2 str4" d="M16925.99 72988.49c0,314.1 -253.95,567.88 -566.46,567.88 -312.68,0 -566.46,-253.78 -566.46,-567.88 0,-313.56 253.95,-567.34 566.46,-567.34 312.51,0 566.46,253.78 566.46,567.34z"/>
  <path class="fil2 str4" d="M22508.46 72988.49c0,314.1 -253.96,567.88 -566.47,567.88 -312.68,0 -566.46,-253.78 -566.46,-567.88 0,-313.56 253.78,-567.34 566.46,-567.34 312.51,0 566.47,253.78 566.47,567.34z"/>
  <path class="fil2 str4" d="M28094.98 72988.49c0,314.1 -253.78,567.88 -566.47,567.88 -312.51,0 -566.46,-253.78 -566.46,-567.88 0,-313.56 253.95,-567.34 566.46,-567.34 312.69,0 566.47,253.78 566.47,567.34z"/>
  <path class="fil2 str4" d="M33677.44 72988.49c0,314.1 -253.96,567.88 -566.46,567.88 -312.51,0 -566.47,-253.78 -566.47,-567.88 0,-313.56 253.96,-567.34 566.47,-567.34 312.5,0 566.46,253.78 566.46,567.34z"/>
  <path class="fil2 str4" d="M39263.96 72988.49c0,314.1 -253.96,567.88 -566.46,567.88 -312.51,0 -566.47,-253.78 -566.47,-567.88 0,-313.56 253.96,-567.34 566.47,-567.34 312.5,0 566.46,253.78 566.46,567.34z"/>
  <path class="fil2 str4" d="M11339.3 78578.54c0,314.1 -253.96,567.88 -566.47,567.88 -312.5,0 -566.46,-253.78 -566.46,-567.88 0,-313.56 253.96,-567.35 566.46,-567.35 312.51,0 566.47,253.79 566.47,567.35z"/>
  <path class="fil2 str4" d="M16925.99 78578.54c0,314.1 -253.95,567.88 -566.46,567.88 -312.51,0 -566.46,-253.78 -566.46,-567.88 0,-313.56 253.95,-567.35 566.46,-567.35 312.51,0 566.46,253.79 566.46,567.35z"/>
  <path class="fil2 str4" d="M22508.46 78578.54c0,314.1 -253.96,567.88 -566.47,567.88 -312.68,0 -566.46,-253.78 -566.46,-567.88 0,-313.56 253.78,-567.35 566.46,-567.35 312.51,0 566.47,253.79 566.47,567.35z"/>
  <path class="fil2 str4" d="M28094.98 78578.54c0,314.1 -253.78,567.88 -566.47,567.88 -312.51,0 -566.46,-253.78 -566.46,-567.88 0,-313.56 253.95,-567.35 566.46,-567.35 312.69,0 566.47,253.79 566.47,567.35z"/>
  <path class="fil2 str4" d="M33677.44 78578.54c0,314.1 -253.96,567.88 -566.46,567.88 -312.51,0 -566.47,-253.78 -566.47,-567.88 0,-313.56 253.96,-567.35 566.47,-567.35 312.5,0 566.46,253.79 566.46,567.35z"/>
  <path class="fil2 str4" d="M39263.96 78578.54c0,314.1 -253.96,567.88 -566.46,567.88 -312.51,0 -566.47,-253.78 -566.47,-567.88 0,-313.56 253.96,-567.35 566.47,-567.35 312.5,0 566.46,253.79 566.46,567.35z"/>
  <path class="fil2 str5" d="M97521.46 167131.14c0,313.92 -253.95,567.88 -566.46,567.88 -312.69,0 -566.47,-253.96 -566.47,-567.88 0,-313.56 253.78,-567.52 566.47,-567.52 312.51,0 566.46,253.96 566.46,567.52z"/>
  <path class="fil2 str5" d="M103107.81 167131.14c0,313.92 -253.96,567.88 -566.47,567.88 -312.15,0 -566.46,-253.96 -566.46,-567.88 0,-313.56 254.31,-567.52 566.46,-567.52 312.51,0 566.47,253.96 566.47,567.52z"/>
  <path class="fil2 str5" d="M108690.27 167131.14c0,313.92 -253.78,567.88 -566.47,567.88 -312.5,0 -566.46,-253.96 -566.46,-567.88 0,-313.56 253.96,-567.52 566.46,-567.52 312.69,0 566.47,253.96 566.47,567.52z"/>
  <path class="fil2 str5" d="M114277.14 167131.14c0,313.92 -254.31,567.88 -566.46,567.88 -312.69,0 -566.47,-253.96 -566.47,-567.88 0,-313.56 253.78,-567.52 566.47,-567.52 312.15,0 566.46,253.96 566.46,567.52z"/>
  <path class="fil2 str5" d="M119859.25 167131.14c0,313.92 -253.78,567.88 -566.46,567.88 -312.69,0 -566.47,-253.96 -566.47,-567.88 0,-313.56 253.78,-567.52 566.47,-567.52 312.68,0 566.46,253.96 566.46,567.52z"/>
  <path class="fil2 str5" d="M97521.46 172725.42c0,313.92 -253.95,567.88 -566.46,567.88 -312.69,0 -566.47,-253.96 -566.47,-567.88 0,-313.56 253.78,-567.52 566.47,-567.52 312.51,0 566.46,253.96 566.46,567.52z"/>
  <path class="fil2 str5" d="M103107.81 172725.42c0,313.92 -253.96,567.88 -566.47,567.88 -312.15,0 -566.46,-253.96 -566.46,-567.88 0,-313.56 254.31,-567.52 566.46,-567.52 312.51,0 566.47,253.96 566.47,567.52z"/>
  <path class="fil2 str5" d="M108690.27 172725.42c0,313.92 -253.78,567.88 -566.47,567.88 -312.5,0 -566.46,-253.96 -566.46,-567.88 0,-313.56 253.96,-567.52 566.46,-567.52 312.69,0 566.47,253.96 566.47,567.52z"/>
  <path class="fil2 str5" d="M114277.14 172725.42c0,313.92 -254.31,567.88 -566.46,567.88 -312.69,0 -566.47,-253.96 -566.47,-567.88 0,-313.56 253.78,-567.52 566.47,-567.52 312.15,0 566.46,253.96 566.46,567.52z"/>
  <path class="fil2 str5" d="M119859.25 172725.42c0,313.92 -253.78,567.88 -566.46,567.88 -312.69,0 -566.47,-253.96 -566.47,-567.88 0,-313.56 253.78,-567.52 566.47,-567.52 312.68,0 566.46,253.96 566.46,567.52z"/>
  <path class="fil2 str5" d="M239048.91 27243.65c0,313.75 -253.78,567.53 -566.46,567.53 -312.68,0 -566.46,-253.78 -566.46,-567.53 0,-313.74 253.78,-567.52 566.46,-567.52 312.68,0 566.46,253.78 566.46,567.52z"/>
  <path class="fil2 str5" d="M244631.55 27243.65c0,313.75 -253.95,567.53 -566.46,567.53 -312.68,0 -566.47,-253.78 -566.47,-567.53 0,-313.74 253.79,-567.52 566.47,-567.52 312.51,0 566.46,253.78 566.46,567.52z"/>
  <path class="fil2 str5" d="M250217.9 27243.65c0,313.75 -253.96,567.53 -566.47,567.53 -312.33,0 -566.64,-253.78 -566.64,-567.53 0,-313.74 254.31,-567.52 566.64,-567.52 312.51,0 566.47,253.78 566.47,567.52z"/>
  <path class="fil2 str5" d="M239048.91 32837.93c0,313.74 -253.78,567.52 -566.46,567.52 -312.68,0 -566.46,-253.78 -566.46,-567.52 0,-313.74 253.78,-567.52 566.46,-567.52 312.68,0 566.46,253.78 566.46,567.52z"/>
  <path class="fil2 str5" d="M244631.55 32837.93c0,313.74 -253.95,567.52 -566.46,567.52 -312.68,0 -566.47,-253.78 -566.47,-567.52 0,-313.74 253.79,-567.52 566.47,-567.52 312.51,0 566.46,253.78 566.46,567.52z"/>
  <path class="fil2 str5" d="M250217.9 32837.93c0,313.74 -253.96,567.52 -566.47,567.52 -312.33,0 -566.64,-253.78 -566.64,-567.52 0,-313.74 254.31,-567.52 566.64,-567.52 312.51,0 566.47,253.78 566.47,567.52z"/>
  <path class="fil2 str5" d="M92835.61 16660.18c0,313.74 -253.78,567.52 -566.47,567.52 -312.51,0 -566.46,-253.78 -566.46,-567.52 0,-313.74 253.95,-567.52 566.46,-567.52 312.69,0 566.47,253.78 566.47,567.52z"/>
  <path class="fil2 str5" d="M98418.25 16660.18c0,313.74 -253.78,567.52 -566.47,567.52 -312.68,0 -566.46,-253.78 -566.46,-567.52 0,-313.74 253.78,-567.52 566.46,-567.52 312.69,0 566.47,253.78 566.47,567.52z"/>
  <path class="fil2 str5" d="M104004.59 16660.18c0,313.74 -253.78,567.52 -566.46,567.52 -312.16,0 -566.47,-253.78 -566.47,-567.52 0,-313.74 254.31,-567.52 566.47,-567.52 312.68,0 566.46,253.78 566.46,567.52z"/>
  <path class="fil2 str5" d="M92835.61 22254.46c0,313.74 -253.78,567.52 -566.47,567.52 -312.51,0 -566.46,-253.78 -566.46,-567.52 0,-313.74 253.95,-567.52 566.46,-567.52 312.69,0 566.47,253.78 566.47,567.52z"/>
  <path class="fil2 str5" d="M98418.25 22254.46c0,313.74 -254.31,567.52 -566.47,567.52 -312.68,0 -566.46,-253.78 -566.46,-567.52 0,-313.74 253.78,-567.52 566.46,-567.52 312.69,0 566.47,253.78 566.47,567.52z"/>
  <path class="fil2 str5" d="M104004.59 22254.46c0,313.74 -253.78,567.52 -566.46,567.52 -312.16,0 -566.47,-253.78 -566.47,-567.52 0,-313.74 254.31,-567.52 566.47,-567.52 312.68,0 566.46,253.78 566.46,567.52z"/>
  <path class="fil2 str5" d="M289242.76 102836.53c0,313.56 -253.78,567.34 -566.46,567.34 -312.69,0 -566.47,-253.78 -566.47,-567.34 0,-313.57 253.78,-567.35 566.47,-567.35 312.68,0 566.46,253.78 566.46,567.35z"/>
  <path class="fil2 str5" d="M289242.76 108430.8c0,313.57 -253.78,567.35 -566.46,567.35 -312.69,0 -566.47,-253.78 -566.47,-567.35 0,-313.56 253.78,-567.34 566.47,-567.34 312.68,0 566.46,253.78 566.46,567.34z"/>
  <path class="fil2 str5" d="M289242.76 114020.85c0,313.57 -253.78,567.35 -566.46,567.35 -312.69,0 -566.47,-253.78 -566.47,-567.35 0,-313.56 253.78,-567.35 566.47,-567.35 312.68,0 566.46,253.79 566.46,567.35z"/>
  <path class="fil2 str5" d="M289242.76 119615.13c0,314.1 -253.78,567.35 -566.46,567.35 -312.69,0 -566.47,-253.25 -566.47,-567.35 0,-313.57 253.78,-567.35 566.47,-567.35 312.68,0 566.46,253.78 566.46,567.35z"/>
  <path class="fil2 str5" d="M289242.76 125205.18c0,314.09 -253.78,567.34 -566.46,567.34 -312.69,0 -566.47,-253.25 -566.47,-567.34 0,-313.57 253.78,-567.35 566.47,-567.35 312.68,0 566.46,253.78 566.46,567.35z"/>
  <path class="fil2 str5" d="M289242.76 130799.46c0,314.09 -253.78,567.87 -566.46,567.87 -312.69,0 -566.47,-253.78 -566.47,-567.87 0,-313.57 253.78,-567.35 566.47,-567.35 312.68,0 566.46,253.78 566.46,567.35z"/>
  <path class="fil2 str5" d="M289242.76 136389.5c0,314.1 -253.78,567.35 -566.46,567.35 -312.69,0 -566.47,-253.25 -566.47,-567.35 0,-313.56 253.78,-567.34 566.47,-567.34 312.68,0 566.46,253.78 566.46,567.34z"/>
  <path class="fil2 str5" d="M283656.07 102836.53c0,313.56 -253.96,567.34 -566.47,567.34 -312.68,0 -566.46,-253.78 -566.46,-567.34 0,-313.57 253.78,-567.35 566.46,-567.35 312.51,0 566.47,253.78 566.47,567.35z"/>
  <path class="fil2 str5" d="M283656.07 108430.8c0,313.57 -253.96,567.35 -566.47,567.35 -312.68,0 -566.46,-253.78 -566.46,-567.35 0,-313.56 253.78,-567.34 566.46,-567.34 312.51,0 566.47,253.78 566.47,567.34z"/>
  <path class="fil2 str5" d="M283656.07 114020.85c0,313.57 -253.96,567.35 -566.47,567.35 -312.68,0 -566.46,-253.78 -566.46,-567.35 0,-313.56 253.78,-567.35 566.46,-567.35 312.51,0 566.47,253.79 566.47,567.35z"/>
  <path class="fil2 str5" d="M283656.07 119615.13c0,314.1 -253.96,567.35 -566.47,567.35 -312.68,0 -566.46,-253.25 -566.46,-567.35 0,-313.57 253.78,-567.35 566.46,-567.35 312.51,0 566.47,253.78 566.47,567.35z"/>
  <path class="fil2 str5" d="M283656.07 125205.18c0,314.09 -253.96,567.34 -566.47,567.34 -312.68,0 -566.46,-253.25 -566.46,-567.34 0,-313.57 253.78,-567.35 566.46,-567.35 312.51,0 566.47,253.78 566.47,567.35z"/>
  <path class="fil2 str5" d="M283656.07 130799.46c0,314.09 -253.96,567.87 -566.47,567.87 -312.68,0 -566.46,-253.78 -566.46,-567.87 0,-313.57 253.78,-567.35 566.46,-567.35 312.51,0 566.47,253.78 566.47,567.35z"/>
  <path class="fil2 str5" d="M283656.07 136389.5c0,314.1 -253.96,567.35 -566.47,567.35 -312.68,0 -566.46,-253.25 -566.46,-567.35 0,-313.56 253.78,-567.34 566.46,-567.34 312.51,0 566.47,253.78 566.47,567.34z"/>
  <path class="fil2 str5" d="M278073.78 102836.53c0,313.56 -253.78,567.34 -566.47,567.34 -312.5,0 -566.46,-253.78 -566.46,-567.34 0,-313.57 253.96,-567.35 566.46,-567.35 312.69,0 566.47,253.78 566.47,567.35z"/>
  <path class="fil2 str5" d="M278073.78 108430.8c0,313.57 -253.78,567.35 -566.47,567.35 -312.5,0 -566.46,-253.78 -566.46,-567.35 0,-313.56 253.96,-567.34 566.46,-567.34 312.69,0 566.47,253.78 566.47,567.34z"/>
  <path class="fil2 str5" d="M278073.78 114020.85c0,313.57 -253.78,567.35 -566.47,567.35 -312.5,0 -566.46,-253.78 -566.46,-567.35 0,-313.56 253.96,-567.35 566.46,-567.35 312.69,0 566.47,253.79 566.47,567.35z"/>
  <path class="fil2 str5" d="M278073.78 119615.13c0,314.1 -253.78,567.35 -566.47,567.35 -312.5,0 -566.46,-253.25 -566.46,-567.35 0,-313.57 253.96,-567.35 566.46,-567.35 312.69,0 566.47,253.78 566.47,567.35z"/>
  <path class="fil2 str5" d="M278073.78 125205.18c0,314.09 -253.78,567.34 -566.47,567.34 -312.5,0 -566.46,-253.25 -566.46,-567.34 0,-313.57 253.96,-567.35 566.46,-567.35 312.69,0 566.47,253.78 566.47,567.35z"/>
  <path class="fil2 str5" d="M278073.78 130799.46c0,314.09 -253.78,567.87 -566.47,567.87 -312.5,0 -566.46,-253.78 -566.46,-567.87 0,-313.57 253.96,-567.35 566.46,-567.35 312.69,0 566.47,253.78 566.47,567.35z"/>
  <path class="fil2 str5" d="M278073.78 136389.5c0,314.1 -253.78,567.35 -566.47,567.35 -312.5,0 -566.46,-253.25 -566.46,-567.35 0,-313.56 253.96,-567.34 566.46,-567.34 312.69,0 566.47,253.78 566.47,567.34z"/>
  <path class="fil2 str5" d="M272487.08 102836.53c0,313.56 -253.78,567.34 -566.46,567.34 -312.69,0 -566.47,-253.78 -566.47,-567.34 0,-313.57 253.78,-567.35 566.47,-567.35 312.68,0 566.46,253.78 566.46,567.35z"/>
  <path class="fil2 str5" d="M272487.08 108430.8c0,313.57 -253.78,567.35 -566.46,567.35 -312.69,0 -566.47,-253.78 -566.47,-567.35 0,-313.56 253.78,-567.34 566.47,-567.34 312.68,0 566.46,253.78 566.46,567.34z"/>
  <path class="fil2 str5" d="M272487.08 114020.85c0,313.57 -253.78,567.35 -566.46,567.35 -312.69,0 -566.47,-253.78 -566.47,-567.35 0,-313.56 253.78,-567.35 566.47,-567.35 312.68,0 566.46,253.79 566.46,567.35z"/>
  <path class="fil2 str5" d="M272487.08 119615.13c0,314.1 -253.78,567.35 -566.46,567.35 -312.69,0 -566.47,-253.25 -566.47,-567.35 0,-313.57 253.78,-567.35 566.47,-567.35 312.68,0 566.46,253.78 566.46,567.35z"/>
  <path class="fil2 str5" d="M272487.08 125205.18c0,314.09 -253.78,567.34 -566.46,567.34 -312.69,0 -566.47,-253.25 -566.47,-567.34 0,-313.57 253.78,-567.35 566.47,-567.35 312.68,0 566.46,253.78 566.46,567.35z"/>
  <path class="fil2 str5" d="M272487.08 130799.46c0,314.09 -253.78,567.87 -566.46,567.87 -312.69,0 -566.47,-253.78 -566.47,-567.87 0,-313.57 253.78,-567.35 566.47,-567.35 312.68,0 566.46,253.78 566.46,567.35z"/>
  <path class="fil2 str5" d="M272487.08 136389.5c0,314.1 -253.78,567.35 -566.46,567.35 -312.69,0 -566.47,-253.25 -566.47,-567.35 0,-313.56 253.78,-567.34 566.47,-567.34 312.68,0 566.46,253.78 566.46,567.34z"/>
  <path class="fil1 str6" d="M224173.22 136172.58l-145007.01 0c-2618.22,0 -4745.11,-2143.64 -4745.11,-4791.32l0 -89377.08c0,-2647.67 2126.89,-4791.49 4745.11,-4791.49l145011.24 0c2617.7,0 4744.94,2143.82 4744.94,4791.49l0 89376.73c-4.23,2648.03 -2131.47,4791.67 -4749.17,4791.67z"/>
  <path class="fil3" d="M223963.18 132171.7l-144588.87 0c-2242.58,0 -4063.31,-1823.55 -4063.31,-4068.77l0 -86079.17c0,-2245.4 1820.73,-4068.95 4063.31,-4068.95l144588.87 0c2242.58,0 4063.83,1823.55 4063.83,4068.95l0 86079.17c0,2249.46 -1821.25,4068.77 -4063.83,4068.77z"/>
  <path class="fil4" d="M176411.36 46007.71l0 60731.99c0,1832.02 -1481.06,3314.84 -3310.78,3314.84l-91318.09 0c-820.77,0 -1574,-298.05 -2152.99,-796.44 -705.96,-609.49 -1157.26,-1508.57 -1157.26,-2518.4l0 -60731.99c0,-1832.02 1485.29,-3314.85 3310.25,-3314.85l91318.09 0c821.3,0 1578.59,298.23 2152.99,796.79 710.72,609.32 1157.79,1508.23 1157.79,2518.06z"/>
  <path class="fil4" d="M221583.39 68653.24l-37800.05 0c-1829.55,0 -3310.61,-1482.47 -3310.61,-3314.84l0 -19330.69c0,-1832.02 1481.06,-3314.85 3310.61,-3314.85l37800.05 0c1829.72,0 3310.26,1482.83 3310.26,3314.85l0 19330.69c0,1832.37 -1484.77,3314.84 -3310.26,3314.84z"/>
  <path class="fil4" d="M221583.39 99213.76l-37800.05 0c-1829.55,0 -3310.61,-1483 -3310.61,-3314.84l0 -19331.05c0,-1831.84 1481.06,-3314.84 3310.61,-3314.84l37800.05 0c1829.72,0 3310.26,1483 3310.26,3314.84l0 19331.05c0,1831.84 -1484.77,3314.84 -3310.26,3314.84z"/>
  <path class="fil4" d="M221583.39 128169.59l-37800.05 0c-1829.55,0 -3310.61,-1483 -3310.61,-3314.84l0 -17490.21c0,-1831.84 1481.06,-3314.84 3310.61,-3314.84l37800.05 0c1829.72,0 3310.26,1483 3310.26,3314.84l0 17490.21c0,1831.84 -1484.77,3314.84 -3310.26,3314.84z"/>
  <path class="fil4" d="M128411.95 116573.65l-48735.36 0c-663.99,0 -1200.12,-537.02 -1200.12,-1201.54 0,-664.87 536.13,-1201.53 1200.12,-1201.53l48735.36 0c663.46,0 1199.59,536.66 1199.59,1201.53 0,660.29 -536.13,1201.54 -1199.59,1201.54z"/>
  <path class="fil4" d="M131224.7 127847.21l-51499.61 0c-701.73,0 -1268.2,-520.79 -1268.2,-1165.73l0 -4667.52c0,-645.29 566.47,-1166.08 1268.2,-1166.08l51499.61 0c701.73,0 1268.19,520.79 1268.19,1166.08l0 4667.52c0,644.94 -566.46,1165.73 -1268.19,1165.73z"/>
  <path class="fil4" d="M164493.03 116573.65l10718.04 0c663.99,0 1200.29,-537.02 1200.29,-1201.54 0,-664.87 -536.3,-1201.53 -1200.29,-1201.53l-10718.04 0c-663.64,0 -1199.77,536.66 -1199.77,1201.53 0,660.29 536.13,1201.54 1199.77,1201.54z"/>
  <path class="fil4" d="M146312.2 116573.65l10717.68 0c663.99,0 1200.12,-537.02 1200.12,-1201.54 0,-664.87 -536.13,-1201.53 -1200.12,-1201.53l-10717.68 0c-663.99,0 -1200.12,536.66 -1200.12,1201.53 -4.24,660.29 536.13,1201.54 1200.12,1201.54z"/>
  <path class="fil4" d="M153954 127898.53l21257.07 0c663.99,0 1200.29,-537.19 1200.29,-1201.53l0 -4810.37c0,-665.05 -536.3,-1201.53 -1200.29,-1201.53l-21257.07 0c-663.99,0 -1200.12,536.48 -1200.12,1201.53l0 4810.37c0,664.34 536.13,1201.53 1200.12,1201.53z"/>
  <g>
   <path class="fil5 str7" d="M202546.51 122603.71c3701.07,0 6701.46,-3004.45 6701.46,-6710.81 0,-3705.83 -3000.39,-6710.45 -6701.46,-6710.45 -3701.24,0 -6701.64,3004.62 -6701.64,6710.45 0,3706.36 3000.4,6710.81 6701.64,6710.81z"/>
   <path class="fil5 str7" d="M205292.42 115231.2l-3825.22 -2211.19c-420.97,-242.67 -944.41,59.61 -944.41,545.48l0 4422.55c0,485.7 523.44,788.15 944.41,545.48l3825.22 -2211.36c421.5,-243.02 421.5,-847.76 0,-1090.96z"/>
  </g>
  <path class="fil6" d="M175253.57 43489.65l-95624.07 65767.92c-705.96,-608.96 -1157.26,-1508.04 -1157.26,-2517.87l0 -60731.99c0,-1832.02 1485.29,-3314.85 3310.25,-3314.85l91318.09 0c821.3,0 1578.59,298.23 2152.99,796.79z"/>
  <g style="clip-path:url(#id0)">
   <polygon class="fil7" points="78766.23,29046.92 176530.23,29046.92 176530.23,110182.93 78766.23,110182.93 "/>
  </g>
  <g style="clip-path:url(#id1)">
   <g>
    <path id="1" class="fil8" d="M155559.8 79726.32c0,0 4760.58,-3763.73 4886.85,-4841.22 237.56,-2028.86 964.69,-3619.28 5320.97,-4964.21 0,0 337.64,646.21 -266.85,1348.53 -660.49,761.77 -1183.91,1029.14 -1183.91,1029.14 0,0 1154.1,442.51 2872.21,-902.59 1718.01,-1341.55 2441.5,-2508.36 3165.08,-2222.25 0,0 853.41,-772.68 1257.79,-650.22 0,0 297.19,89.14 241.42,408.89 671.4,-104.21 534.2,1835.37 -660.46,3410.96 -1718.11,2266.55 -3862.98,4217.47 -5618.25,4860.13 -1317.02,483.43 -6760.75,6030.61 -6760.75,6030.61l-3254.1 -3507.77z"/>
    <path class="fil9" d="M140857.99 98929.6c-2077.9,702.48 -13606.84,-17051.73 -13606.84,-17051.73 -4456.75,-5135.04 -456.44,-22049.26 3577.1,-16118.67 0,0 10489.82,19002.13 11621.73,20533.09 1406.27,1902.43 6085.56,10039.96 -1591.99,12637.31z"/>
    <path class="fil9" d="M127866.82 116553.19l-30397.53 0c0,0 -2334.15,-1029.01 -304.45,-5517.59 760.66,-1675.94 430.74,-5993.94 304.45,-11920.42 -255.89,-11719.38 -3729.1,-31171.12 556.7,-33400.78 2567.8,-1341.22 8022.44,-3106.08 11981.3,-4313.88 237.77,-66.85 467.52,-137.42 694.34,-204.43 2311.37,-691.16 3962.81,-1148.14 3962.81,-1148.14 0,0 1914.58,278.72 5803.6,1430.48 211.25,63.35 430.13,130.17 656.73,197.18 1013.06,308.3 2141.04,668.56 3395.17,1095.88 6797.69,2315.12 6033.5,1490.25 6935.26,9991.76 719.9,6788.61 -3588.38,43789.94 -3588.38,43789.94z"/>
    <path class="fil10" d="M121124.77 61671.7c-89.04,1441.53 -734.88,2716.17 -1717.85,3648.73 -998.37,955.18 -2352.69,1534.5 -3829.86,1534.5 -3046.24,0 -5510.32,-2441.11 -5573.43,-5454.41 237.66,-66.85 467.65,-137.42 694.3,-204.43 2311.36,-691.16 3962.83,-1148.14 3962.83,-1148.14 0,0 1914.5,278.72 5803.55,1430.48 211.33,59.58 433.86,126.26 660.46,193.27z"/>
    <path class="fil8" d="M120456.71 49502.78l-478.59 9259.58 -137.02 2641.81c-55.94,1122.34 -549.48,2121.79 -1313.7,2842.35 -756.91,721.23 -1781.2,1159.43 -2902.03,1159.43 -2371.12,0 -4282.11,-1958.1 -4219.03,-4328.72l118.9 -4715.32 200.33 -7832.76 8731.14 973.63z"/>
    <path class="fil11" d="M120456.71 51353.11l-478.59 8720.79c-4096.71,163.67 -7083.61,-1501 -8452.88,-3723.1l200.33 -5963.77 8731.14 966.08z"/>
    <path class="fil12" d="M106648.39 39931.41c0,0 -3214.87,-555.33 -2766,4371.79 349.22,3819.74 7179.03,9487.57 7179.03,9487.57 0,0 915.69,-12016.34 -4413.03,-13859.36z"/>
    <path class="fil13" d="M125039.44 43984.65c-267.23,609.51 -679.14,1140.93 -1016.87,1713.23 -333.51,572.06 -601.03,1226 -526.46,1887.51 -67.15,-1073.87 -775.57,-1976.76 -1388.13,-2857.53 -612.13,-884.24 -1168.74,-1954.43 -875.56,-2987.32 278.27,-992.03 2070.42,-2556.32 3161.43,-1913.7 1213.3,713.56 1120.67,3076.78 645.59,4157.81z"/>
    <path class="fil8" d="M123707.27 44181.9c0,0 304.37,3016.95 -118.41,6357.46 -490.07,3860.71 -315.88,8393.84 -5996.52,8698.62 -6063.41,323.29 -8070.91,-6472.74 -8070.91,-6472.74 0,0 -3220.84,-602.03 -3439.65,-2779.42 -219.03,-2181.16 2029.66,-2303.79 2764.19,-1690.7 0,0 -2650.44,-4174.5 -918.29,-6704.11 1074.05,-1568.59 4524,-2505.39 9249.01,-1422.2 6615.91,-7.56 6530.58,4013.09 6530.58,4013.09z"/>
    <path class="fil14 str8" d="M116582.56 50383.17c0,330.66 -266.87,601.93 -600.96,601.93 -333.67,0 -600.95,-267.52 -600.95,-601.93 0,-330.69 267.28,-601.74 600.95,-601.74 334.09,0 600.96,271.05 600.96,601.74z"/>
    <path class="fil14" d="M122015.23 50383.17c0,330.66 -267.37,601.93 -601.19,601.93 -333.99,0 -600.87,-267.52 -600.87,-601.93 0,-330.69 266.88,-601.74 600.87,-601.74 333.82,0 601.19,271.05 601.19,601.74z"/>
    <path class="fil15 str9" d="M113796.22 48291.36c0,0 890.59,-1467.63 2786.86,-940.05"/>
    <path class="fil15 str9" d="M119851.98 47328.98c0,0 1369.33,-1252.15 2716.34,118.9"/>
    <path class="fil15 str10" d="M118649.77 48819.05c0,0 649,1660.91 1202.21,2693.82 553.11,1033.07 -1079.62,1493.84 -1079.62,1493.84"/>
    <path class="fil15 str11" d="M116475.32 54864.59c0,0 1339.6,1300.3 3061.37,505.27"/>
    <path class="fil15 str10" d="M108738.21 50684.02c0,0 -18.27,-1868.71 -1413.35,-1359.74"/>
    <path class="fil16" d="M113045.42 45135.8c-2077.64,1482.64 -3323.6,5247.37 -3323.6,5247.37 0,0 44.82,-739.29 -879.54,-2091.81 -7073.41,-10385.02 6585.77,-4853.54 4203.14,-3155.56z"/>
    <path class="fil9" d="M140857.99 98929.6c2478.88,1616.4 21318.01,-18534.16 21318.01,-18534.16l-3343.38 -4380.59c0,0 -14323.33,8999.21 -16382.64,10277.44 -2968.68,1839.47 -9929.72,7204.82 -1591.99,12637.31z"/>
    <path class="fil17" d="M130839.18 87214.13c0,0 842.28,-9211.6 697.89,-12136.18 0,0 1198.34,7732.68 1228.15,14877.85l-1926.04 -2741.67z"/>
    <path class="fil9" d="M99005.52 84074.07c0,0 4411.96,-18916.71 -308.11,-18694.21 0,0 -1539.74,185.84 -4552.68,4867.83 -2108.06,3273.81 -4415.7,8947.54 -8623.94,18177.51 -1988.59,4362.21 -4474.95,10266.32 141.27,10582.59 2497.06,170.86 5116.83,-1196.75 6660.35,-4068.93 2827.89,-5261.71 6683.11,-10864.79 6683.11,-10864.79z"/>
    <path class="fil17" d="M102953.48 107620.41l24011.62 -5666.42c-3.73,0 -7554.67,5666.42 -24011.62,5666.42z"/>
    <path class="fil17" d="M96504.42 87875.3c0,0 3874.06,-6870.41 5933.57,-10222.13l-4835.22 26281.35c0,0 -471.2,-10734.42 -1098.35,-16059.22z"/>
    <polygon class="fil17" points="111944.43,96826.6 97584.37,103540.53 98322.66,96636.99 "/>
    <path class="fil9 str6" d="M114296.85 95677.8l0 0 2371.19 -12964.14 0 -0.76c123.45,-682.8 717.76,-1177.71 1414.02,-1177.71l5039.29 0c896.79,0 1576.46,813.9 1413.54,1699.38l0 0.52 -2370.62 12963.62c-127.15,684.11 -722.58,1178.5 -1414.24,1178.5l-5039.06 0c-897.36,0 -1576.85,-813.62 -1414.12,-1699.41z"/>
    <path class="fil18" d="M121373.51 98130.43l-5039.45 0c-1024.03,0 -1799.39,-928.56 -1613.86,-1939.46l2371.03 -12964.14c140.83,-780.57 819.95,-1345.28 1613.88,-1345.28l5039.32 0c1024.13,0 1799.77,929.08 1614.24,1939.74l-2371.31 12964.15c-140.73,780.14 -819.95,1344.99 -1613.85,1344.99z"/>
    <path class="fil9 str6" d="M117628.88 86475.92l0.49 -2.16 578.67 -3166.05 0 0 0.26 -1.18c8.51,-49.71 52.66,-88.18 107.5,-88.18l901.66 0c70.07,0 120.99,63 108.31,129.77l-0.52 2 -578.99 3165.48 0 0 0 1.74c-8.47,49.74 -52.34,87.82 -107.71,87.82l-901.4 0c-70.08,0 -121.41,-62.56 -108.27,-129.24z"/>
    <path class="fil19" d="M107209.75 91118.86c0,0 2456.67,-81.81 4337.96,-657.61 809.03,-249.04 2411.84,-538.83 2942.5,-1307.7 534.35,-776.54 485.88,-2452.79 1020.22,-2523.16 412.14,-55.77 1235.77,1255.84 1024.07,2140.14 -207.86,865.86 -308.05,1345.24 -623.24,1731.78 -103.85,130 3358.46,375.33 5551.25,-107.69 1502.74,-330.83 1057.33,1159.35 37.02,1627.23 0,0 363.51,910.35 -701.35,1218.77 0,0 11.29,1215.11 -1005.58,1270.86 -114.84,282.38 -311.82,884.48 -1191.31,1099.94 -1280.04,315.87 -3213.44,434.79 -5161.31,260.17 -990.64,-89.24 -5562.37,713.34 -5562.37,713.34l-667.86 -5466.07z"/>
    <path class="fil9" d="M85513.51 99078.15c3506.59,613.19 24408.8,-1750.21 24408.8,-1750.21l-519.73 -7323.66c0,0 -17031.71,795.24 -19302.81,591.02 -7510.43,-665.42 -8950.07,7721.12 -4586.26,8482.85z"/>
    <path class="fil14" d="M106448.57 34681.56c396.99,-405.25 3761.55,-835.37 4317.79,-898.02 556.24,-62.76 1189.87,467.74 1006.13,1010.95 1893.4,-839.85 3872.64,-1466.31 5897.41,-1867.37 507.2,-100.31 1055.03,-183.7 1525.35,46.08 466.63,229.65 756.57,893.8 437.88,1307.32 981.3,376.04 2069.48,129.47 3112.07,4.27 1042.97,-125.43 2233.19,-71.14 2940.55,718.47 658.45,731.02 670.89,1833.81 650.24,2828.26 -32.58,1361.71 396.31,4730.46 93.66,6058.83 -449.87,1963.38 -1496.75,3776.41 -2965.07,5125.48 437.69,-1528.81 -343.54,-4147.22 -1574.43,-5128.65 -1227.07,-985.98 -2809.88,-452.16 -4359.9,-631.91 -1856.36,-217.12 -1132.55,-10.22 -2981.31,298.95 -1394.54,234.01 -3954.75,-2099.58 -5632.4,-1756.02 -1395.91,0 -2400.97,1003.37 -2749.96,480.25 -905.57,-1357.47 -494.64,-6803.25 281.99,-7596.89z"/>
   </g>
  </g>
  <path class="fil0" d="M176530.23 33039.51l0 73150.66c0,2206.6 -1477.71,3992.76 -3304.08,3992.76l-91155.31 0c-819.89,0 -1571.53,-359.24 -2149.29,-959.75 -705.08,-734 -1155.32,-1816.67 -1155.32,-3033.01l0 -73150.66c0,-2206.78 1482.47,-3992.59 3304.61,-3992.59l91155.31 0c819.89,0 1575.76,359.25 2149.28,959.57 709.14,734.01 1154.8,1816.85 1154.8,3033.02z"/>
  <path class="fil1" d="M167595.01 49062.59l-20006.68 0c-1531.32,0 -2773.95,-1244.03 -2773.95,-2777.82l0 -8402.27c0,-1533.79 1242.63,-2778 2773.95,-2778l20006.68 0c1531.85,0 2774.12,1244.21 2774.12,2778l0 8402.27c0,1533.79 -1242.27,2777.82 -2774.12,2777.82z"/>
  <polygon class="fil1" points="149094.61,48159.46 149094.61,51985.57 153187.72,47886.63 "/>
  <path class="fil4 str12" d="M150690.48 43681.36c880.92,0 1595.34,-715.32 1595.34,-1597.81 0,-882.33 -714.42,-1597.64 -1595.34,-1597.64 -881.44,0 -1595.87,715.31 -1595.87,1597.64 0,882.49 714.43,1597.81 1595.87,1597.81z"/>
  <path class="fil4 str12" d="M157591.76 43681.36c880.91,0 1595.34,-715.32 1595.34,-1597.81 0,-882.33 -714.43,-1597.64 -1595.34,-1597.64 -881.44,0 -1595.87,715.31 -1595.87,1597.64 0,882.49 714.43,1597.81 1595.87,1597.81z"/>
  <path class="fil4 str12" d="M164493.03 43681.36c881.44,0 1595.7,-715.32 1595.7,-1597.81 0,-882.33 -714.26,-1597.64 -1595.7,-1597.64 -881.09,0 -1595.34,715.31 -1595.34,1597.64 0,882.49 714.25,1597.81 1595.34,1597.81z"/>
  <polygon class="fil20" points="222627.26,162788.31 221721.13,173827.49 226422.68,173827.49 228865.07,162788.31 "/>
  <path class="fil21" d="M226933.24 171518.25c0,0 2042.41,3302.14 510.91,3890.12 -1531.85,587.98 -11615.88,639.3 -14104.83,268.42 -2489.48,-374.76 5552.31,-3787.66 7390.67,-4324.67 1842.25,-536.66 2433.4,2262.68 6203.25,166.13z"/>
  <polygon class="fil20" points="247348.19,162788.31 248250.08,173827.49 243548.53,173827.49 241110.37,162788.31 "/>
  <path class="fil21" d="M243037.98 171518.25c0,0 -2042.42,3302.14 -510.39,3890.12 1531.86,587.98 11615.88,639.3 14104.83,268.42 2488.95,-374.76 -5552.83,-3787.66 -7390.85,-4324.67 -1837.83,-536.66 -2433.75,2262.68 -6203.59,166.13z"/>
  <path class="fil22" d="M221682.86 102426.84l-2131.48 66189.95 9926.36 0 2140.29 -44085.48 8505.44 45351.03 10811.5 -1802.21c0,0 -9760.58,-49471.13 -11419.94,-65649.05l-17832.17 0 0 -4.24z"/>
  <polygon class="fil23 str13" points="231161.62,127567.68 230824.24,120428.5 231383.3,124534.66 "/>
  <line class="fil0 str14" x1="236323.82" y1="102426.84" x2="247812.01" y2= "168450.66" />
  <path class="fil24" d="M239379.33 46507.28c-2384.8,-408.77 -5408.47,-2902.33 -7807.9,-3688.7 -9694.48,-2725.36 -10184.53,6233.66 -12715.82,6498.39 -7669.92,785.43 -6977.55,8584.66 -4549.88,12849.33 12929.95,22659.08 39743.72,10183.7 34792.37,-2419.55 -1392.74,-1629.59 700.66,-3111.19 503.82,-4350.07 -757.25,-4684.21 -6102.22,-8192.41 -10222.59,-8889.4z"/>
  <path class="fil25" d="M211224.6 89746.99c-2046.64,-1632.2 -10369.19,-7145.35 -10450.32,-7916.57 -153.08,-1448.43 -659.4,-2594.94 -3761.03,-3583.08 0,0 -246.72,459.94 182.89,967.15 463.82,549.71 838.05,741.06 838.05,741.06 0,0 -825.36,307.04 -2042.23,-664.52 -1217.05,-971.38 -1723.2,-1810.85 -2242.23,-1610.68 0,0 -604.2,-558.18 -893.43,-472.65 0,0 -212.87,59.61 -174.6,289.76 -481.1,-81.3 -395.75,1303.65 442.31,2441.34 1208.59,1631.67 3340.06,2875.7 4591.15,3348.88 935.94,353.59 7075.69,9445.6 11190.32,10430.21 1182.84,272.48 3271.99,-3212.55 2319.12,-3970.9z"/>
  <path class="fil26" d="M217662.05 81681.58c0,0 -9198.88,6425.28 -10088.25,8022.91 -889.38,1597.81 -225.39,5862.7 3871.96,3123.14 4097.34,-2739.91 10564.6,-7711.82 10564.6,-7711.82l-4348.31 -3434.23z"/>
  <path class="fil27" d="M222389.35 75831.58c0,0 -2527.75,639.3 -4212.68,2645.73 -1412.46,1682.99 -3688.55,4392.75 -3688.55,4392.75l6977.82 5428.15c4.05,-4.24 1706.27,-9871.69 923.41,-12466.63z"/>
  <path class="fil21" d="M239515.03 102426.84l-17836.4 0c0,0 72.3,-3063.35 -919.19,-7822.75 -995.37,-4754.81 -497.86,-7242.88 493.63,-9727.07 995.72,-2483.84 -778.8,-8227.49 1136.28,-9045.44 778.27,-332.26 2131.47,-869.28 3458.93,-1384.95 335.96,-127.86 668.22,-259.95 987.43,-383.05 1540.32,-596.8 2837.97,-1090.96 2837.97,-1090.96l3212.2 0c0,0 2212.6,733.13 4484.63,1640.14 298.04,119.39 599.97,243.2 897.66,366.83 0,4.23 0,4.23 0,4.23 1144.75,481.46 2238.35,988.14 2982.76,1453.02 2412.77,1490.76 -1735.9,25990 -1735.9,25990z"/>
  <path class="fil25" d="M228592.42 65069.1l340.73 6612.4 97.88 1887.39c42.5,801.2 391.51,1517.04 936.11,2032.71 540.36,515.5 1272.08,826.24 2072.22,826.24 1693.39,0 3054.88,-1397.46 3012.56,-3088.92l-85.54 -3365.63 -144.61 -5594.28 -6229.35 690.09z"/>
  <path class="fil28" d="M228592.42 65069.1l340.73 6229.35c2922.79,118.86 5059.03,-1074.2 6037.47,-2658.79l-144.62 -4260.65 -6233.58 690.09z"/>
  <path class="fil25" d="M226269.6 59947.64c0,0 -216.92,2156.16 85,4537.71 349.02,2756.84 655.18,5913.84 4285,6212.07 4322.73,353.6 5764.99,-4622.72 5764.99,-4622.72 0,0 2008.37,-468.94 2255.1,-1840.84 246.9,-1376.12 -1250.91,-1789.51 -1773.99,-1354.61 0,0 -595.92,-5803.26 -5948.41,-5803.26 -4731.53,0 -4667.69,2871.65 -4667.69,2871.65z"/>
  <path class="fil1" d="M238268.17 74979.59c0,4.23 0,4.23 0,0 -3659.09,4465.05 -7973.53,4256.42 -7973.53,4256.42 -3403.91,-745.65 -4446.36,-4789.38 -4446.36,-4789.38 336.49,-127.86 668.22,-259.95 987.43,-383.05 1540.32,-596.8 2837.97,-659.94 2837.97,-659.94l3212.2 0.18c0,0 2212.6,301.93 4484.63,1208.94 298.04,119.39 599.97,243.2 897.66,366.83z"/>
  <path class="fil25" d="M237370.51 74612.76c-3731.58,4060.49 -6965.3,3634.58 -6965.3,3634.58 -3476.21,-1333.63 -3570.03,-4183.76 -3570.03,-4183.76 1540.32,-596.8 2838.5,-1090.96 2838.5,-1090.96l3212.2 0c0,0 2212.6,733.13 4484.63,1640.14z"/>
  <path class="fil29" d="M228133.36 55823.31c0,0 497.86,4196.81 -2195.49,5581.41 0,0 -1348.97,-5082.84 2195.49,-5581.41z"/>
  <path class="fil29" d="M227316.29 56223.82c0,0 957.45,3655.57 3331.59,3868.79 2374.15,212.86 1952.83,2139.05 4055.02,2360.21 1250.92,131.91 1808.03,1436.26 1808.03,1436.26 0,0 182.89,-1295.35 1314.94,-1755.47 1140.51,-460.48 -2676.43,-10136.4 -10509.58,-5909.79z"/>
  <path class="fil30" d="M231345.56 65022.01c0,229.97 182.88,413.39 412.86,413.39 229.61,0 412.5,-183.42 412.5,-413.39 0,-230.15 -182.89,-413.03 -412.5,-413.03 -225.74,0 -412.86,187.12 -412.86,413.03z"/>
  <path class="fil30" d="M227610.28 65022.01c0,229.97 182.88,412.86 412.5,412.86 229.97,0 412.86,-182.89 412.86,-412.86 0,-230.15 -187.12,-413.56 -412.86,-413.56 -229.62,0 -412.5,187.65 -412.5,413.56z"/>
  <path class="fil0 str15" d="M233264.17 63582.04c0,0 -612.5,-1009.83 -1918.61,-647.76"/>
  <path class="fil0 str15" d="M229098.75 62921.75c0,0 -944.4,-860.45 -1867.47,80.6"/>
  <path class="fil0 str10" d="M229924.28 63948.34c0,0 -446.54,1141.75 -825.53,1853.35 -378.47,711.61 744.76,1026.94 744.76,1026.94"/>
  <path class="fil0 str16" d="M232400.54 67638.3c0,0 -727.48,1060.62 -1995.33,758.16"/>
  <path class="fil0 str10" d="M236872.65 64732.25c0,0 13.05,-1286.53 969.97,-932.76"/>
  <path class="fil1" d="M222044.39 98174.48l-16338.41 0c-323.44,0 -587.1,-264.01 -587.1,-587.81 0,-323.79 263.66,-587.98 587.1,-587.98l16338.41 0c323.45,0 587.63,264.19 587.63,587.98 -4.23,328.03 -264.18,587.81 -587.63,587.81z"/>
  <path class="fil1 str6" d="M203868.32 84275.46l0 0 0 -0.88c-98.94,-393.46 202.11,-778.8 607.56,-778.8l14717.5 0c289.4,0 539.48,195.93 607.55,473.52l0 1.06 3170.76 12799.24 -16006.86 0 -3096.51 -12494.14z"/>
  <path class="fil3" d="M222138.22 97002.93l-16487.79 0 -3139.9 -12671.39c-136.32,-540.89 276.71,-1069.08 833.83,-1069.08l14717.5 0c395.75,0 740.53,268.24 833.82,651.82l3242.54 13088.65z"/>
  <path class="fil1" d="M234689.85 98174.48l-12364.52 0c-302.28,0 -548.65,-246.73 -548.65,-549.54l0 -72.3c0,-302.46 246.37,-549.71 548.65,-549.71l12364.52 0c302.28,0 549.18,247.25 549.18,549.71l0 72.3c4.06,307.05 -242.67,549.54 -549.18,549.54z"/>
  <path class="fil1 str6" d="M212708.48 89412.97l0 0.35c276.18,716.37 18.17,1373.84 -424.14,1547.91 -440.19,168.77 -1071.91,-145.15 -1348.61,-863.28 -276.71,-718.13 -16.76,-1377.89 423.61,-1547.73 440.54,-170.01 1072.79,141.27 1349.14,862.75z"/>
  <polygon class="fil27" points="240416.93,97002.93 239344.67,83087.51 241404.36,88945.8 "/>
  <path class="fil25" d="M240557.49 84502.26c0,0 2544.5,13693.73 3173.93,15934.9 408.8,1448.44 3378.68,2437.11 4310.56,519.91 203.87,-421.85 157.31,-1125.17 135.8,-1840.83 -144.62,-4426.79 -3237.77,-15692.42 -3237.77,-15692.42l-4382.52 1078.44z"/>
  <path class="fil21" d="M241254.99 76436.84c0,0 1519.33,779.68 2795.64,2982.05 1276.66,2202.9 3038.13,6088.97 2927.55,7030.55 -663.99,1810.5 -5906.08,3685.37 -5906.08,3685.37 0,0 -3501.43,-11525.41 182.89,-13697.97z"/>
  <path class="fil25" d="M244195.24 97791.07c0,0 -8079.88,-178.82 -9611.91,-1090.6 -2075.92,-1239.8 -2557.03,-703.14 -3760.85,-1001.36 -1931.84,-481.46 -1718.97,-89.59 -1718.97,-89.59 0,0 89.06,1120.93 1582.64,1261.31 753.23,72.31 1880.52,392.05 1642.61,575.29 0,0 -5990.91,626.25 -7195.26,732.59 -1203.83,106.88 -616.91,1035.4 302.27,1248.8 0,0 548.83,694.32 1438.21,481.46 0,0 -195.93,392.04 2109.96,392.04 2306.6,0 4620.95,-1227.28 5791.27,-694.85 1169.79,532.78 7488.73,2982.58 11496.48,2416.12 1914.91,-273.01 1927.6,-1193.07 1927.6,-2164.63 0,-1683.17 -1242.62,-1895.86 -4004.05,-2066.58z"/>
  <polygon class="fil31" points="76561.56,162788.31 73893.78,173827.49 69192.23,173827.49 70324.28,162788.31 "/>
  <path class="fil21" d="M68681.67 171518.25c0,0 -2042.23,3302.14 -510.38,3890.12 1531.86,587.98 11615.88,639.3 14104.83,268.42 2488.95,-374.76 -5552.66,-3787.66 -7390.67,-4324.67 -1838.01,-536.66 -2433.93,2262.68 -6203.78,166.13z"/>
  <polygon class="fil31" points="61754.83,162788.31 60142.2,173827.49 55440.48,173827.49 55517.02,162788.31 "/>
  <path class="fil21" d="M54930.09 171518.25c0,0 -2042.41,3302.14 -510.56,3890.12 1531.68,587.98 11615.53,639.3 14105.01,268.42 2488.95,-374.76 -5552.84,-3787.66 -7390.85,-4324.67 -1838.01,-536.66 -2433.75,2262.68 -6203.6,166.13z"/>
  <path class="fil22" d="M53853.6 109397.6l348.84 58908.45 7463.33 0 5271.72 -43280.58 6007.66 17562.52 -4497.15 25722.29 8118.15 0c0,0 7135.48,-22228.27 6846.25,-26591.04 -289.4,-4367.52 -8526.95,-34115.73 -8526.95,-34115.73l-21031.85 1794.09z"/>
  <polygon class="fil32 str13" points="68273.93,128227.97 67170.46,124997.96 67684.54,119771.38 "/>
  <line class="fil0 str13" x1="58066.28" y1="108686" x2="57635.97" y2= "168310.28" />
  <path class="fil31" d="M80918.69 82418.76c0,0 4820.59,9130.27 4927.11,11934.2 106.34,2803.4 -2978.52,2177.33 -4573.87,-349.54 -1595.34,-2530.93 -4148.66,-9706.09 -4148.66,-9706.09l3795.42 -1878.57z"/>
  <path class="fil27" d="M81820.76 83181.33c0,0 -1382.65,2462.68 -4697.49,3966.66 -684.98,311.28 -1263.61,-511.44 -1693.4,-1487.05 -497.86,-1137.69 -787.09,-2479.61 -787.09,-2479.61 0,0 -3799.65,-11772.31 -450.77,-11350.46 0,0 2850.49,200.17 4943.87,4332.97 549.18,1077.9 1404.52,3250.82 2119.3,5313.34 203.87,587.98 395.75,1162.73 565.58,1704.15z"/>
  <path class="fil1" d="M81820.76 83181.33c0,0 -1382.65,2462.68 -4697.49,3966.66 -684.98,311.28 -1263.61,-511.44 -1693.4,-1487.05 1297.65,-583.75 3753.09,-1896.04 5825.31,-4183.76 203.87,587.98 395.75,1162.73 565.58,1704.15z"/>
  <path class="fil21" d="M75055.64 108246.86c-2106.26,2394.78 -15972.65,2041 -21206.27,1150.21 -919.01,-157.13 -1825.32,-510.91 -374.59,-3715.17 544.77,-1197.3 310.74,-4277.41 217.1,-8512.84 -182.89,-8372.11 -2663.55,-22261.78 395.75,-23855.89 1833.78,-958.33 5727.07,-2219.65 8556.58,-3080.11 170.36,-47.08 335.96,-97.88 497.86,-149.2 1650.89,-494.15 2829.5,-822.18 2829.5,-822.18 0,0 1365.9,200.17 4144.08,1022.35 148.85,42.86 310.74,93.82 472.29,140.91 723.25,221.16 1527.62,476.88 2425.46,783.92 1739.96,592.03 3016.62,954.1 3327.36,1533.79 829.6,1521.1 510.56,4218.15 561.35,8103.69 68.08,4878.44 17.29,25287.21 -1846.47,27400.52z"/>
  <polygon class="fil27" points="53040.94,87689.24 56031.98,80386.22 53853.6,99171.79 "/>
  <path class="fil1" d="M70587.94 70429.17c-64.02,1031.18 -527.32,1938.19 -1225.34,2603.24 -714.96,681.62 -1680.88,1095.01 -2731.63,1095.01 -2174.5,0 -3935.97,-1742.78 -3978.3,-3898.41 170.19,-47.27 335.96,-98.06 497.86,-149.38 1650.9,-494.16 2829.5,-822.18 2829.5,-822.18 0,0 1365.73,200.16 4144.08,1022.35 144.62,55.55 302.28,102.11 463.83,149.37z"/>
  <path class="fil33" d="M72401.08 52238.82c0,0 -1575.23,-1507.87 -3959.25,-1866.41 -3487.5,-524.84 -8078.47,611.26 -8993.07,5942.06 -723.25,3072 3016.79,10237.1 4429.25,9943.11 0,0 12715.65,-10176.26 8523.07,-14018.76z"/>
  <path class="fil31" d="M70111.42 61741.56l-340.2 6612.58 -97.88 1887.39c-38.27,801.2 -391.52,1517.04 -936.11,2032.53 -540.37,515.15 -1272.43,826.42 -2072.22,826.42 -1693.4,0 -3054.89,-1397.47 -3012.38,-3088.92l84.82 -3366.16 144.62 -5594.28 6229.35 690.44z"/>
  <path class="fil34" d="M70111.42 63057.9l-340.2 6229.35c-2923.32,119.04 -5059.03,-1073.67 -6038,-2658.78l144.79 -4260.66 6233.41 690.09z"/>
  <path class="fil31" d="M72430.54 58465.7c0,0 216.92,1626.91 -85.36,4008.46 -348.66,2756.84 -225.39,5994.61 -4284.46,6212.06 -4331.73,230.15 -5765.53,-4622.72 -5765.53,-4622.72 0,0 -2301.83,-430.14 -2459.15,-1985.45 -157.66,-1555.13 1450.73,-1644.72 1974.34,-1209.99 0,0 595.39,-5274.02 5947.88,-5274.02 4735.76,4.24 4672.28,2871.66 4672.28,2871.66z"/>
  <path class="fil35" d="M67477.32 62103.8c0,238.44 -191.17,430.14 -429.26,430.14 -238.43,0 -429.78,-191.7 -429.78,-430.14 0,-238.96 191.35,-430.67 429.78,-430.67 233.85,0 429.26,191.71 429.26,430.67z"/>
  <path class="fil35" d="M71617.7 61882.12c0,238.44 -191.7,430.14 -429.79,430.14 -238.44,0 -429.79,-191.7 -429.79,-430.14 0,-238.97 191.35,-430.32 429.79,-430.32 238.09,0 429.79,191.35 429.79,430.32z"/>
  <path class="fil0 str17" d="M65354.31 60872.29c0,0 634.19,-1048.1 1991.09,-668.93"/>
  <path class="fil0 str17" d="M69677.57 60186.25c0,0 978.44,-894.67 1939.6,85.18"/>
  <path class="fil0 str18" d="M68822.23 61251.28c0,0 463.83,1184.61 859.4,1926.2 395.75,736.65 -774.57,1064.67 -774.57,1064.67"/>
  <path class="fil0 str19" d="M67265.16 65567.49c0,0 956.92,928.53 2186.5,362.06"/>
  <path class="fil0 str20" d="M61741.78 62580.15c0,0 -12.7,-1333.1 -1007.89,-971.03"/>
  <path class="fil33" d="M63056.71 56377.25c0,0 2433.93,2483.84 1102.07,3434.06 -1480.54,1056.75 -1714.74,2556.5 -1714.74,2556.5 0,0 29.8,-528.19 -629.43,-1495.52 -659.93,-967.33 -2097.96,-4401.39 1242.1,-4495.04z"/>
  <path class="fil31" d="M49730.68 82908.68c0,0 -4820.77,9130.8 -4927.11,11934.2 -106.52,2803.4 2978.35,2177.33 4573.86,-349.36 1595.7,-2531.11 4148.49,-9706.09 4148.49,-9706.09l-3795.24 -1878.75z"/>
  <path class="fil31" d="M84105.67 91263.5c0,0 -7186.27,-5325.5 -7595.07,-5628.31 -693.45,-519.73 -1705.92,-1273.84 -2071.69,-1529.56 -579.16,-404.57 -3961.55,-992.55 -4433.84,-916.01 -468.05,76.54 -1765.7,298.22 -2144.52,438.6 -378.47,140.91 97.88,626.78 472.11,856.76 374.76,229.97 2033.95,1090.42 3442.35,1350.38 782.86,145.14 1455.31,541.24 2003.96,937.52 438.26,315.33 8020.81,8056.95 8305.8,8244.6l2020.9 -3753.98z"/>
  <path class="fil31" d="M75208.72 84728.17c0,0 -2705.88,-2535.15 -3110.44,-2496.88 -399.81,38.27 -114.81,609.32 949.16,1474 361.53,293.99 748.82,758.17 1072.26,911.78 633.66,298.04 1089.02,111.1 1089.02,111.1z"/>
  <path class="fil1 str6" d="M73028.22 93861.09l1.05 0c239.32,-26.98 437.2,-200.16 498.75,-436.13l0 0 2356.86 -9075.25c103.52,-398.93 -228.57,-781.1 -639.66,-732.24 -0.53,0 -0.53,0 -0.53,0l-9866.57 1180.19 -1.41 0 0 0c-238.97,27.51 -437.19,200.52 -498.39,436.31l0 0 -2357.39 9075.08c-102.99,399.45 228.74,781.27 640.36,732.59l9866.93 -1180.55zm0 0l-9866.93 1180.55 9866.93 -1180.55z"/>
  <path class="fil3" d="M73494.33 94395.46l-9866.92 1180.02c-574.4,68.07 -1038.23,-464.18 -893.61,-1022.35l2357.38 -9075.25c84.83,-328.03 361.54,-571.05 697.5,-609.32l9867.11 -1180.02c574.4,-68.6 1038.22,464.18 893.61,1022.35l-2357.39 9075.08c-85.01,323.97 -361.71,566.99 -697.68,609.49z"/>
  <path class="fil1 str6" d="M65902.96 87301.96l0 0 -0.35 2.29c-0.53,1.94 -2.29,6.17 -7.93,11.29 -5.65,4.58 -12.7,8.28 -20.99,10.22l-469.47 54.5 0 0c-9.87,1.06 -18.69,-1.76 -25.57,-10.23 -7.58,-8.29 -9.35,-17.28 -7.05,-26.98l0 0 463.82 -1781.05 0 0 1.41 -4.23c1.76,-8.82 9.7,-17.29 21.87,-18.7l475.46 -55.55 0 0c9.88,-0.88 18.7,2.29 25.75,10.76 7.41,8.46 9.35,17.28 6.88,26.63l0 0.35 -463.83 1780.7z"/>
  <path class="fil31" d="M46645.81 92141.6c3012.39,119.04 12428.36,-76.9 13675.04,-502.98 536.14,-182.88 1855.3,-460.12 2191.26,-984.08 340.73,-532.43 629.96,-1341.92 983.2,-1401.7 271.95,-47.09 208.11,830.65 127.33,1150.21 -153.07,575.28 -255.19,873.51 -459.59,1137.69 -68.07,89.59 2251.05,421.67 3706.36,51.32 999.43,-255.72 812.31,545.48 140.38,881.8 0,0 267.89,698.55 -438.6,929.05 0,0 123.63,775.1 -557.12,834.89 -72.31,191.7 -285,537.01 -872.62,703.14 -850.58,238.44 -2326.88,234.2 -3450.64,280.94 -663.46,25.57 -13491.98,2032.53 -15759.78,1461.31 -944.58,-238.44 -263.83,-4579.69 714.78,-4541.59z"/>
  <path class="fil21" d="M55291.81 84135.43c0,0 -221.34,839.47 -549.01,1704.69 -365.94,954.1 -863.63,1933.95 -1353.03,1844.89 0,0 -6654.54,-2104.85 -6433.39,-2786.65 165.95,-507.21 451.13,-1167.49 804.2,-1900.44 1102.06,-2292.14 2850.84,-5283.01 3557.15,-6442.21 2408.18,-3958.2 3395.27,-3455.23 3395.27,-3455.23 3374.27,-161.9 578.81,11034.95 578.81,11034.95z"/>
  <path class="fil1" d="M54742.8 85840.12c-365.94,954.1 -863.63,1933.95 -1353.03,1844.89 0,0 -6654.54,-2104.85 -6433.39,-2786.65 165.95,-507.21 451.13,-1167.49 804.2,-1900.44 1225.51,579.51 4531.54,2100.61 6982.22,2842.2z"/>
  <path class="fil27" d="M56853.46 104497.65c0,0 11062.64,-1776.82 17019.34,-5325.86 0,0 -6663.19,6676.24 -17019.34,5325.86z"/>
  <path class="fil21 str12" d="M194822.17 146716.72l-28767.48 0c-1417.04,0 -2561.26,-1150.21 -2561.26,-2564.61l0 -13920c0,-1418.63 1148.8,-2564.61 2561.26,-2564.61l28767.48 0c1416.51,0 2561.08,1150.21 2561.08,2564.61l0 13915.42c4.24,1418.98 -1144.57,2569.19 -2561.08,2569.19z"/>
  <path class="fil0 str1" d="M166543.73 141795.78c2680.66,0 2680.66,-3195.44 5361.49,-3195.44 2680.12,0 2680.12,-4260.66 5360.95,-4260.66 2680.66,0 2680.66,1631.68 5360.96,1631.68 2680.66,0 2680.66,-3940.92 5361.31,-3940.92 2680.3,0 2680.3,6182.08 5360.96,6182.08"/>
  <path class="fil3 str12" d="M167326.77 141795.78c0,-430.31 -349.02,-779.86 -778.8,-779.86 -429.79,0 -778.28,349.55 -778.28,779.86 0,430.14 348.49,779.16 778.28,779.16 429.78,0 778.8,-349.02 778.8,-779.16z"/>
  <path class="fil3 str12" d="M194132.43 138216.76c0,-430.14 -349.01,-779.69 -778.8,-779.69 -429.79,0 -778.27,349.55 -778.27,779.69 0,430.14 348.48,779.33 778.27,779.33 429.79,0 778.8,-349.19 778.8,-779.33z"/>
  <path class="fil21" d="M28460.57 46211.22l28733.09 0c1923.37,0 3484.67,-1563.77 3484.67,-3489.61l0 -8781.26c0,-1925.84 -1561.3,-3489.44 -3484.67,-3489.44l-28733.09 0c-1923.19,0 -3484.85,1563.6 -3484.85,3489.44l0 8781.26c0,1930.07 1561.66,3489.61 3484.85,3489.61z"/>
  <polygon class="fil21" points="56397.93,45307.91 56397.93,49134.02 52300.58,45035.26 "/>
  <line class="fil0 str1" x1="28277.51" y1="34319.52" x2="36242.58" y2= "34319.52" />
  <line class="fil0 str1" x1="39080.72" y1="34319.52" x2="57376.54" y2= "34319.52" />
  <line class="fil0 str1" x1="28277.51" y1="38333.1" x2="43127.1" y2= "38333.1" />
  <line class="fil0 str1" x1="45399.13" y1="38333.1" x2="49794.52" y2= "38333.1" />
  <line class="fil0 str1" x1="52151.56" y1="38333.1" x2="57376.54" y2= "38333.1" />
  <line class="fil0 str1" x1="28277.51" y1="42342.44" x2="31638.91" y2= "42342.44" />
  <line class="fil0 str1" x1="33698.25" y1="42342.44" x2="45824.51" y2= "42342.44" />
  <path class="fil21 str12" d="M207301.32 31981.53l-7373.56 0c-1370.49,0 -2481.02,-1112.12 -2481.02,-2484.01l0 -7383.79c0,-1371.9 1110.53,-2484.02 2481.02,-2484.02l7373.56 0c1369.96,0 2480.49,1112.12 2480.49,2484.02l0 7383.79c0,1371.89 -1110.53,2484.01 -2480.49,2484.01z"/>
  <path class="fil3 str12" d="M207811.7 25168.26l-182.88 -809.49c-34.04,-157.66 -195.93,-255.72 -353.25,-221.5l-476.87 110.75c-123.1,29.81 -246.37,-29.8 -314.45,-136.32 -187.64,-293.99 -417.26,-558.18 -680.74,-779.69 -106.52,-89.59 -140.56,-234.38 -81.3,-358.01l238.43 -489.92c72.31,-144.97 8.47,-323.79 -136.15,-392.05l-748.99 -362.06c-144.62,-72.48 -323.44,-8.64 -391.52,136.32l-255.19 532.61c-55.02,119.22 -187.12,178.83 -314.45,161.9 -157.84,-21.34 -323.44,-34.22 -485.34,-34.22 -166.13,0 -327.5,12.88 -484.81,34.22 -132.09,16.93 -259.95,-42.68 -314.98,-161.9l-255.19 -532.61c-72.3,-144.96 -246.9,-208.8 -391.51,-136.32l-749 362.06c-144.61,72.49 -208.46,247.08 -136.15,392.05l238.44 489.92c59.26,123.63 20.99,268.42 -80.77,358.01 -264.19,225.74 -497.86,485.7 -680.75,779.69 -68.25,106.52 -191.88,166.13 -314.98,136.32l-476.87 -110.75c-157.31,-34.22 -314.62,63.84 -352.72,221.5l-183.06 809.49c-34.04,157.67 63.49,315.33 221.16,353.6l604.38 136.33c-4.76,85.35 -13.05,166.3 -13.05,251.48 0,404.75 72.3,796.79 204.4,1154.63 42.32,119.21 12.52,255.72 -89.59,336.66l-233.86 187.47c-127.86,102.12 -148.84,285.35 -46.73,413.21l493.28 652c102.28,127.69 285.17,149.03 413.03,46.74l161.37 -132.1c110.57,-85.18 264.18,-80.94 370.53,4.41 340.19,264.01 727.48,468.59 1153.03,592.22 127.33,38.27 221.15,149.02 221.15,285.34l0 170.54c0,161.9 132.1,293.82 293.47,293.82l829.59 0c162.07,0 293.63,-131.92 293.63,-293.82l0 -170.54c0,-136.32 93.65,-247.07 221.51,-285.34 425.2,-123.63 812.49,-323.98 1153.04,-592.22 110.57,-85.35 263.65,-93.82 370,-4.41l162.07 132.1c127.33,102.29 310.22,80.95 412.33,-46.74l519.37 -647.76c101.76,-127.86 80.78,-310.92 -47.08,-413.21l-233.86 -187.47c-102.11,-80.95 -131.91,-217.28 -89.59,-336.67 132.1,-362.07 204.4,-749.88 204.4,-1154.62 0,-85.18 -8.28,-166.13 -12.52,-251.31l603.86 -136.33c161.89,-42.68 259.77,-200.34 225.73,-358.01zm-4195.22 2846.26c-1162.03,0 -2102.2,-941.76 -2102.2,-2104.85 0,-1163.26 940.17,-2104.84 2102.2,-2104.84 1161.32,0 2101.49,941.58 2101.49,2104.84 0,1163.09 -940.17,2104.85 -2101.49,2104.85z"/>
  <path class="fil21 str12" d="M272744.21 80882.32c755.35,-4657.46 -2402.71,-9044.92 -7053.47,-9799.91 -4650.76,-754.99 -9033.63,2408.18 -9789.15,7064.93 -755.34,4656.94 2402.71,9044.57 7053.47,9799.91 4650.76,754.99 9033.63,-2408.18 9789.15,-7064.93z"/>
  <path class="fil21 str1" d="M268992.53 80636.3c608.97,-2580.84 -986.9,-5166.26 -3564.39,-5775.23 -2577.13,-608.96 -5160.26,989.73 -5769.75,3570.04 -608.97,2580.83 986.37,5166.78 3564.03,5775.75 2577.66,608.96 5160.79,-989.73 5770.11,-3570.56z"/>
  <g>
   <path class="fil21" d="M264316.55 76377.05l0 3139.9 -1654.95 1657.42 1654.95 -4797.32zm0 0l0 0 0 0z"/>
   <path id="1" class="fil0 str12" d="M264316.55 76377.05l0 3139.9 -1654.95 1657.42m1654.95 -4797.32l0 0 0 0z"/>
  </g>
  <polyline class="fil0 str1" points="264316.55,76377.05 264316.55,79516.95 262661.6,81174.37 "/>
  <line class="fil0 str1" x1="264316.55" y1="74715.4" x2="264316.55" y2= "75175.52" />
  <line class="fil0 str1" x1="264316.55" y1="83862.96" x2="264316.55" y2= "84318.85" />
  <line class="fil0 str1" x1="269112.1" y1="79516.95" x2="268652.34" y2= "79516.95" />
  <line class="fil0 str1" x1="259981.3" y1="79516.95" x2="259521.18" y2= "79516.95" />
 </g>
</svg>
